<?xml version="1.0" encoding="UTF-8" standalone="no"?>
<svg
   xmlns:dc="http://purl.org/dc/elements/1.1/"
   xmlns:cc="http://web.resource.org/cc/"
   xmlns:rdf="http://www.w3.org/1999/02/22-rdf-syntax-ns#"
   xmlns:svg="http://www.w3.org/2000/svg"
   xmlns="http://www.w3.org/2000/svg"
   xmlns:sodipodi="http://sodipodi.sourceforge.net/DTD/sodipodi-0.dtd"
   xmlns:inkscape="http://www.inkscape.org/namespaces/inkscape"
   width="2048px"
   height="2048px"
   viewBox="0 0 2048 2048"
   version="1.1"
   id="svg74873"
   sodipodi:version="0.32"
   inkscape:version="0.45.1"
   sodipodi:docname="RMU.svg"
   inkscape:output_extension="org.inkscape.output.svg.inkscape"
   sodipodi:docbase="E:\Dornier328\UVMap_Cockpit\UVMap_Center">
  <metadata
     id="metadata75522">
    <rdf:RDF>
      <cc:Work
         rdf:about="">
        <dc:format>image/svg+xml</dc:format>
        <dc:type
           rdf:resource="http://purl.org/dc/dcmitype/StillImage" />
      </cc:Work>
    </rdf:RDF>
  </metadata>
  <defs
     id="defs75520" />
  <sodipodi:namedview
     inkscape:window-height="803"
     inkscape:window-width="1536"
     inkscape:pageshadow="2"
     inkscape:pageopacity="0.0"
     guidetolerance="10.0"
     gridtolerance="10.0"
     objecttolerance="10.0"
     borderopacity="1.0"
     bordercolor="#666666"
     pagecolor="#ffffff"
     id="base"
     inkscape:zoom="0.18408203"
     inkscape:cx="1024"
     inkscape:cy="1024"
     inkscape:window-x="-8"
     inkscape:window-y="-8"
     inkscape:current-layer="svg74873" />
  <desc
     id="desc74875">uv_export_svg.py: e:\Dornier328\UVMap_Cockpit\UVMap_Center\RMU.svg</desc>
  <g
     style="fill:#e4d3ab;stroke:#000000"
     inkscape:label="RMU1.screen"
     id="RMU1.screen"
     transform="translate(-2189.2414,5.4323607)">
    <polygon
       id="Mesh.030_.:._0"
       points="2048,2048 2048,0 0,0 0,2048 2048,2048 " />
  </g>
  <rect
     x="-2189.2415"
     y="5.4323606"
     width="2048"
     height="2048"
     id="rect74877"
     style="fill:none;stroke:#0000ff;stroke-width:1" />
  <g
     style="fill:#e2f78b;stroke:#000000"
     inkscape:label="RMU1"
     id="RMU1"
     transform="translate(-2189.2414,5.4323607)">
    <g
       id="g74880">
      <polygon
         id="Mesh_.:._0"
         points="1981.0918,98.998291 1975.5562,119.63599 2005.8809,137.15869 2016.1167,98.998291 1981.0918,98.998291 " />
      <polygon
         id="Mesh_.:._1"
         points="1939.8164,98.998291 1975.5562,119.63599 1981.0918,98.998291 1939.8164,98.998291 " />
      <polygon
         id="Mesh_.:._2"
         points="1975.5562,119.63599 1939.8164,98.998291 1960.4541,134.75635 1975.5562,119.63599 " />
      <polygon
         id="Mesh_.:._3"
         points="1975.5562,119.63599 1960.4541,134.75635 1977.9563,165.08105 2005.8809,137.15869 1975.5562,119.63599 " />
      <polygon
         id="Mesh_.:._4"
         points="1939.8164,175.29858 1977.9563,165.08105 1960.4541,134.75635 1939.8164,140.27368 1939.8164,175.29858 " />
      <polygon
         id="Mesh_.:._5"
         points="1960.4541,134.75635 1939.8164,98.998291 1939.8164,140.27368 1960.4541,134.75635 " />
      <polygon
         id="Mesh_.:._6"
         points="1939.8164,140.27368 1939.8164,98.998291 1919.1787,134.75635 1939.8164,140.27368 " />
      <polygon
         id="Mesh_.:._7"
         points="1901.656,165.08105 1939.8164,175.29858 1939.8164,140.27368 1919.1787,134.75635 1901.656,165.08105 " />
      <polygon
         id="Mesh_.:._8"
         points="1873.7316,137.15869 1901.656,165.08105 1919.1787,134.75635 1904.0583,119.63599 1873.7316,137.15869 " />
      <polygon
         id="Mesh_.:._9"
         points="1919.1787,134.75635 1939.8164,98.998291 1904.0583,119.63599 1919.1787,134.75635 " />
      <polygon
         id="Mesh_.:._10"
         points="1904.0583,119.63599 1939.8164,98.998291 1898.5226,98.998291 1904.0583,119.63599 " />
      <polygon
         id="Mesh_.:._11"
         points="1863.5161,98.998291 1873.7316,137.15869 1904.0583,119.63599 1898.5226,98.998291 1863.5161,98.998291 " />
      <polygon
         id="Mesh_.:._12"
         points="1873.7316,60.858398 1863.5161,98.998291 1898.5226,98.998291 1904.0583,78.360596 1873.7316,60.858398 " />
      <polygon
         id="Mesh_.:._13"
         points="1898.5226,98.998291 1939.8164,98.998291 1904.0583,78.360596 1898.5226,98.998291 " />
      <polygon
         id="Mesh_.:._14"
         points="1904.0583,78.360596 1939.8164,98.998291 1919.1787,63.258667 1904.0583,78.360596 " />
      <polygon
         id="Mesh_.:._15"
         points="1901.656,32.933838 1873.7316,60.858398 1904.0583,78.360596 1919.1787,63.258667 1901.656,32.933838 " />
      <polygon
         id="Mesh_.:._16"
         points="1939.8164,22.697998 1901.656,32.933838 1919.1787,63.258667 1939.8164,57.702393 1939.8164,22.697998 " />
      <polygon
         id="Mesh_.:._17"
         points="1919.1787,63.258667 1939.8164,98.998291 1939.8164,57.702393 1919.1787,63.258667 " />
      <polygon
         id="Mesh_.:._18"
         points="1939.8164,57.702393 1939.8164,98.998291 1960.4541,63.258667 1939.8164,57.702393 " />
      <polygon
         id="Mesh_.:._19"
         points="1977.9563,32.933838 1939.8164,22.697998 1939.8164,57.702393 1960.4541,63.258667 1977.9563,32.933838 " />
      <polygon
         id="Mesh_.:._20"
         points="2005.8809,60.858398 1977.9563,32.933838 1960.4541,63.258667 1975.5562,78.360596 2005.8809,60.858398 " />
      <polygon
         id="Mesh_.:._21"
         points="1960.4541,63.258667 1939.8164,98.998291 1975.5562,78.360596 1960.4541,63.258667 " />
      <polygon
         id="Mesh_.:._22"
         points="1975.5562,78.360596 1939.8164,98.998291 1981.0918,98.998291 1975.5562,78.360596 " />
      <polygon
         id="Mesh_.:._23"
         points="2016.1167,98.998291 2005.8809,60.858398 1975.5562,78.360596 1981.0918,98.998291 2016.1167,98.998291 " />
    </g>
    <g
       id="g74906">
      <polygon
         id="Mesh_.:._24"
         points="1987.3383,158.0011 2010.4355,126.32471 1978.0034,113.80737 1965.4963,130.93884 1987.3383,158.0011 " />
      <polygon
         id="Mesh_.:._25"
         points="1978.0034,113.80737 1939.7571,99.047363 1965.4963,130.93884 1978.0034,113.80737 " />
      <polygon
         id="Mesh_.:._26"
         points="1980.2419,92.706787 1939.7571,99.047363 1978.0034,113.80737 1980.2419,92.706787 " />
      <polygon
         id="Mesh_.:._27"
         points="2010.4355,126.32471 2014.5869,87.320557 1980.2419,92.706787 1978.0034,113.80737 2010.4355,126.32471 " />
      <polygon
         id="Mesh_.:._28"
         points="2014.5869,87.320557 1998.7129,51.466187 1971.6649,73.295898 1980.2419,92.706787 2014.5869,87.320557 " />
      <polygon
         id="Mesh_.:._29"
         points="1971.6649,73.295898 1939.7571,99.047363 1980.2419,92.706787 1971.6649,73.295898 " />
      <polygon
         id="Mesh_.:._30"
         points="1954.5027,60.815308 1939.7571,99.047363 1971.6649,73.295898 1954.5027,60.815308 " />
      <polygon
         id="Mesh_.:._31"
         points="1998.7129,51.466187 1967.02,28.381226 1954.5027,60.815308 1971.6649,73.295898 1998.7129,51.466187 " />
      <polygon
         id="Mesh_.:._32"
         points="1967.02,28.381226 1928.0179,24.201172 1933.4042,58.548218 1954.5027,60.815308 1967.02,28.381226 " />
      <polygon
         id="Mesh_.:._33"
         points="1933.4042,58.548218 1939.7571,99.047363 1954.5027,60.815308 1933.4042,58.548218 " />
      <polygon
         id="Mesh_.:._34"
         points="1914.0199,67.153931 1939.7571,99.047363 1933.4042,58.548218 1914.0199,67.153931 " />
      <polygon
         id="Mesh_.:._35"
         points="1928.0179,24.201172 1892.178,40.091675 1914.0199,67.153931 1933.4042,58.548218 1928.0179,24.201172 " />
      <polygon
         id="Mesh_.:._36"
         points="1892.178,40.091675 1869.0642,71.780396 1901.5127,84.2854 1914.0199,67.153931 1892.178,40.091675 " />
      <polygon
         id="Mesh_.:._37"
         points="1901.5127,84.2854 1939.7571,99.047363 1914.0199,67.153931 1901.5127,84.2854 " />
      <polygon
         id="Mesh_.:._38"
         points="1899.2599,105.40027 1939.7571,99.047363 1901.5127,84.2854 1899.2599,105.40027 " />
      <polygon
         id="Mesh_.:._39"
         points="1869.0642,71.780396 1864.9128,110.78455 1899.2599,105.40027 1901.5127,84.2854 1869.0642,71.780396 " />
      <polygon
         id="Mesh_.:._40"
         points="1864.9128,110.78455 1880.8013,146.62659 1907.8656,124.78467 1899.2599,105.40027 1864.9128,110.78455 " />
      <polygon
         id="Mesh_.:._41"
         points="1907.8656,124.78467 1939.7571,99.047363 1899.2599,105.40027 1907.8656,124.78467 " />
      <polygon
         id="Mesh_.:._42"
         points="1924.9971,137.29175 1939.7571,99.047363 1907.8656,124.78467 1924.9971,137.29175 " />
      <polygon
         id="Mesh_.:._43"
         points="1880.8013,146.62659 1912.4797,169.72595 1924.9971,137.29175 1907.8656,124.78467 1880.8013,146.62659 " />
      <polygon
         id="Mesh_.:._44"
         points="1946.11,139.54663 1924.9971,137.29175 1912.4797,169.72595 1951.4818,173.90393 1946.11,139.54663 " />
      <polygon
         id="Mesh_.:._45"
         points="1946.11,139.54663 1939.7571,99.047363 1924.9971,137.29175 1946.11,139.54663 " />
      <polygon
         id="Mesh_.:._46"
         points="1939.7571,99.047363 1946.11,139.54663 1965.4963,130.93884 1939.7571,99.047363 " />
      <polygon
         id="Mesh_.:._47"
         points="1965.4963,130.93884 1946.11,139.54663 1951.4818,173.90393 1987.3383,158.0011 1965.4963,130.93884 " />
    </g>
    <g
       id="g74932">
      <polygon
         id="Mesh_.:._48"
         points="1980.7723,98.738159 1975.2981,119.22021 2005.3955,136.59338 2015.5352,98.738159 1980.7723,98.738159 " />
      <polygon
         id="Mesh_.:._49"
         points="1939.8062,98.738159 1975.2981,119.22021 1980.7723,98.738159 1939.8062,98.738159 " />
      <polygon
         id="Mesh_.:._50"
         points="1975.2981,119.22021 1939.8062,98.738159 1960.2882,134.22998 1975.2981,119.22021 " />
      <polygon
         id="Mesh_.:._51"
         points="1975.2981,119.22021 1960.2882,134.22998 1977.6615,164.32739 2005.3955,136.59338 1975.2981,119.22021 " />
      <polygon
         id="Mesh_.:._52"
         points="1939.8062,174.46704 1977.6615,164.32739 1960.2882,134.22998 1939.8062,139.70227 1939.8062,174.46704 " />
      <polygon
         id="Mesh_.:._53"
         points="1960.2882,134.22998 1939.8062,98.738159 1939.8062,139.70227 1960.2882,134.22998 " />
      <polygon
         id="Mesh_.:._54"
         points="1939.8062,139.70227 1939.8062,98.738159 1919.3242,134.22998 1939.8062,139.70227 " />
      <polygon
         id="Mesh_.:._55"
         points="1901.9509,164.32739 1939.8062,174.46704 1939.8062,139.70227 1919.3242,134.22998 1901.9509,164.32739 " />
      <polygon
         id="Mesh_.:._56"
         points="1874.2169,136.59338 1901.9509,164.32739 1919.3242,134.22998 1904.3143,119.22021 1874.2169,136.59338 " />
      <polygon
         id="Mesh_.:._57"
         points="1919.3242,134.22998 1939.8062,98.738159 1904.3143,119.22021 1919.3242,134.22998 " />
      <polygon
         id="Mesh_.:._58"
         points="1904.3143,119.22021 1939.8062,98.738159 1898.8401,98.738159 1904.3143,119.22021 " />
      <polygon
         id="Mesh_.:._59"
         points="1864.0753,98.738159 1874.2169,136.59338 1904.3143,119.22021 1898.8401,98.738159 1864.0753,98.738159 " />
      <polygon
         id="Mesh_.:._60"
         points="1874.2169,60.882935 1864.0753,98.738159 1898.8401,98.738159 1904.3143,78.254028 1874.2169,60.882935 " />
      <polygon
         id="Mesh_.:._61"
         points="1898.8401,98.738159 1939.8062,98.738159 1904.3143,78.254028 1898.8401,98.738159 " />
      <polygon
         id="Mesh_.:._62"
         points="1904.3143,78.254028 1939.8062,98.738159 1919.3242,63.246338 1904.3143,78.254028 " />
      <polygon
         id="Mesh_.:._63"
         points="1901.9509,33.167358 1874.2169,60.882935 1904.3143,78.254028 1919.3242,63.246338 1901.9509,33.167358 " />
      <polygon
         id="Mesh_.:._64"
         points="1939.8062,23.007202 1901.9509,33.167358 1919.3242,63.246338 1939.8062,57.751587 1939.8062,23.007202 " />
      <polygon
         id="Mesh_.:._65"
         points="1919.3242,63.246338 1939.8062,98.738159 1939.8062,57.751587 1919.3242,63.246338 " />
      <polygon
         id="Mesh_.:._66"
         points="1939.8062,57.751587 1939.8062,98.738159 1960.2882,63.246338 1939.8062,57.751587 " />
      <polygon
         id="Mesh_.:._67"
         points="1977.6615,33.167358 1939.8062,23.007202 1939.8062,57.751587 1960.2882,63.246338 1977.6615,33.167358 " />
      <polygon
         id="Mesh_.:._68"
         points="2005.3955,60.882935 1977.6615,33.167358 1960.2882,63.246338 1975.2981,78.254028 2005.3955,60.882935 " />
      <polygon
         id="Mesh_.:._69"
         points="1960.2882,63.246338 1939.8062,98.738159 1975.2981,78.254028 1960.2882,63.246338 " />
      <polygon
         id="Mesh_.:._70"
         points="1975.2981,78.254028 1939.8062,98.738159 1980.7723,98.738159 1975.2981,78.254028 " />
      <polygon
         id="Mesh_.:._71"
         points="2015.5352,98.738159 2005.3955,60.882935 1975.2981,78.254028 1980.7723,98.738159 2015.5352,98.738159 " />
    </g>
    <g
       id="g74958">
      <polygon
         id="Mesh_.:._72"
         points="1999.1859,52.217896 1967.8105,28.807129 1954.943,61.042725 1971.9167,73.713623 1999.1859,52.217896 " />
      <polygon
         id="Mesh_.:._73"
         points="1954.943,61.042725 1939.7837,99.04126 1971.9167,73.713623 1954.943,61.042725 " />
      <polygon
         id="Mesh_.:._74"
         points="1933.9059,58.537964 1939.7837,99.04126 1954.943,61.042725 1933.9059,58.537964 " />
      <polygon
         id="Mesh_.:._75"
         points="1967.8105,28.807129 1928.9375,24.203247 1933.9059,58.537964 1954.943,61.042725 1967.8105,28.807129 " />
      <polygon
         id="Mesh_.:._76"
         points="1928.9375,24.203247 1892.9623,39.639038 1914.4437,66.891724 1933.9059,58.537964 1928.9375,24.203247 " />
      <polygon
         id="Mesh_.:._77"
         points="1914.4437,66.891724 1939.7837,99.04126 1933.9059,58.537964 1914.4437,66.891724 " />
      <polygon
         id="Mesh_.:._78"
         points="1901.7728,83.865601 1939.7837,99.04126 1914.4437,66.891724 1901.7728,83.865601 " />
      <polygon
         id="Mesh_.:._79"
         points="1892.9623,39.639038 1869.5332,71.024658 1901.7728,83.865601 1914.4437,66.891724 1892.9623,39.639038 " />
      <polygon
         id="Mesh_.:._80"
         points="1869.5332,71.024658 1864.9293,109.89978 1899.2804,104.91699 1901.7728,83.865601 1869.5332,71.024658 " />
      <polygon
         id="Mesh_.:._81"
         points="1899.2804,104.91699 1939.7837,99.04126 1901.7728,83.865601 1899.2804,104.91699 " />
      <polygon
         id="Mesh_.:._82"
         points="1907.6342,124.38123 1939.7837,99.04126 1899.2804,104.91699 1907.6342,124.38123 " />
      <polygon
         id="Mesh_.:._83"
         points="1864.9293,109.89978 1880.3815,145.86267 1907.6342,124.38123 1899.2804,104.91699 1864.9293,109.89978 " />
      <polygon
         id="Mesh_.:._84"
         points="1880.3815,145.86267 1911.7384,169.28564 1924.608,137.05212 1907.6342,124.38123 1880.3815,145.86267 " />
      <polygon
         id="Mesh_.:._85"
         points="1924.608,137.05212 1939.7837,99.04126 1907.6342,124.38123 1924.608,137.05212 " />
      <polygon
         id="Mesh_.:._86"
         points="1945.6594,139.54456 1939.7837,99.04126 1924.608,137.05212 1945.6594,139.54456 " />
      <polygon
         id="Mesh_.:._87"
         points="1911.7384,169.28564 1950.6257,173.90588 1945.6594,139.54456 1924.608,137.05212 1911.7384,169.28564 " />
      <polygon
         id="Mesh_.:._88"
         points="1950.6257,173.90588 1986.6051,158.44348 1965.1113,131.17444 1945.6594,139.54456 1950.6257,173.90588 " />
      <polygon
         id="Mesh_.:._89"
         points="1965.1113,131.17444 1939.7837,99.04126 1945.6594,139.54456 1965.1113,131.17444 " />
      <polygon
         id="Mesh_.:._90"
         points="1977.7946,114.21692 1939.7837,99.04126 1965.1113,131.17444 1977.7946,114.21692 " />
      <polygon
         id="Mesh_.:._91"
         points="1986.6051,158.44348 2010.03,127.08459 1977.7946,114.21692 1965.1113,131.17444 1986.6051,158.44348 " />
      <polygon
         id="Mesh_.:._92"
         points="1980.2706,93.177856 1977.7946,114.21692 2010.03,127.08459 2014.6217,88.195068 1980.2706,93.177856 " />
      <polygon
         id="Mesh_.:._93"
         points="1980.2706,93.177856 1939.7837,99.04126 1977.7946,114.21692 1980.2706,93.177856 " />
      <polygon
         id="Mesh_.:._94"
         points="1939.7837,99.04126 1980.2706,93.177856 1971.9167,73.713623 1939.7837,99.04126 " />
      <polygon
         id="Mesh_.:._95"
         points="1971.9167,73.713623 1980.2706,93.177856 2014.6217,88.195068 1999.1859,52.217896 1971.9167,73.713623 " />
    </g>
    <g
       id="g74984">
      <polygon
         id="Mesh_.:._96"
         points="1562.2554,229.21423 1524.9142,272.93494 1546.4919,310.30884 1585.451,269.396 1562.2554,229.21423 " />
      <polygon
         id="Mesh_.:._97"
         points="1546.4919,1404.1088 1585.451,1445.0217 1585.451,269.396 1546.4919,310.30884 1546.4919,1404.1088 " />
      <polygon
         id="Mesh_.:._98"
         points="1524.9142,1441.4807 1562.2554,1485.1871 1585.451,1445.0217 1546.4919,1404.1088 1524.9142,1441.4807 " />
      <polygon
         id="Mesh_.:._99"
         points="1487.5403,1463.0584 1522.09,1508.3827 1562.2554,1485.1871 1524.9142,1441.4807 1487.5403,1463.0584 " />
      <polygon
         id="Mesh_.:._100"
         points="563.92297,1463.0584 529.37317,1508.3827 1522.09,1508.3827 1487.5403,1463.0584 563.92297,1463.0584 " />
      <polygon
         id="Mesh_.:._101"
         points="526.55103,1441.4807 489.20987,1485.1871 529.37317,1508.3827 563.92297,1463.0584 526.55103,1441.4807 " />
      <polygon
         id="Mesh_.:._102"
         points="504.9733,1404.1088 466.01422,1445.0217 489.20987,1485.1871 526.55103,1441.4807 504.9733,1404.1088 " />
      <polygon
         id="Mesh_.:._103"
         points="504.9733,310.30884 466.01422,269.396 466.01422,1445.0217 504.9733,1404.1088 504.9733,310.30884 " />
      <polygon
         id="Mesh_.:._104"
         points="526.55103,272.93494 489.20987,229.21423 466.01422,269.396 504.9733,310.30884 526.55103,272.93494 " />
      <polygon
         id="Mesh_.:._105"
         points="563.92297,251.35718 529.37317,206.03491 489.20987,229.21423 526.55103,272.93494 563.92297,251.35718 " />
      <polygon
         id="Mesh_.:._106"
         points="1487.5403,251.35718 1522.09,206.03491 529.37317,206.03491 563.92297,251.35718 1487.5403,251.35718 " />
      <polygon
         id="Mesh_.:._107"
         points="1487.5403,251.35718 1524.9142,272.93494 1562.2554,229.21423 1522.09,206.03491 1487.5403,251.35718 " />
      <polygon
         id="Mesh_.:._108"
         points="1585.451,269.396 1785.3911,210.24561 1603.5963,30.388184 1562.2554,229.21423 1585.451,269.396 " />
      <polygon
         id="Mesh_.:._109"
         points="1585.451,1445.0217 1785.3911,1836.8471 1785.3911,210.24561 1585.451,269.396 1585.451,1445.0217 " />
      <polygon
         id="Mesh_.:._110"
         points="1562.2554,1485.1871 1603.5963,2016.7045 1785.3911,1836.8471 1585.451,1445.0217 1562.2554,1485.1871 " />
      <polygon
         id="Mesh_.:._111"
         points="1522.09,1508.3827 1603.5963,2016.7045 1562.2554,1485.1871 1522.09,1508.3827 " />
      <polygon
         id="Mesh_.:._112"
         points="529.37317,1508.3827 447.86893,2016.7045 1603.5963,2016.7045 1522.09,1508.3827 529.37317,1508.3827 " />
      <polygon
         id="Mesh_.:._113"
         points="489.20987,1485.1871 447.86893,2016.7045 529.37317,1508.3827 489.20987,1485.1871 " />
      <polygon
         id="Mesh_.:._114"
         points="466.01422,1445.0217 266.07205,1836.8471 447.86893,2016.7045 489.20987,1485.1871 466.01422,1445.0217 " />
      <polygon
         id="Mesh_.:._115"
         points="466.01422,269.396 266.07205,210.24561 266.07205,1836.8471 466.01422,1445.0217 466.01422,269.396 " />
      <polygon
         id="Mesh_.:._116"
         points="489.20987,229.21423 447.86893,30.388184 266.07205,210.24561 466.01422,269.396 489.20987,229.21423 " />
      <polygon
         id="Mesh_.:._117"
         points="529.37317,206.03491 447.86893,30.388184 489.20987,229.21423 529.37317,206.03491 " />
      <polygon
         id="Mesh_.:._118"
         points="1522.09,206.03491 1603.5963,30.388184 447.86893,30.388184 529.37317,206.03491 1522.09,206.03491 " />
      <polygon
         id="Mesh_.:._119"
         points="1522.09,206.03491 1562.2554,229.21423 1603.5963,30.388184 1522.09,206.03491 " />
    </g>
    <g
       id="g75010">
      <polygon
         id="Mesh_.:._120"
         points="49.600513,944.4884 0.022528,944.4884 0.022528,1023.9897 49.600513,1023.9897 49.600513,944.4884 " />
      <polygon
         id="Mesh_.:._121"
         points="49.600513,438.81067 0.022528,438.81067 0.022528,944.4884 49.600513,944.4884 49.600513,438.81067 " />
      <polygon
         id="Mesh_.:._122"
         points="49.600513,359.30933 0.022528,359.30933 0.022528,438.81067 49.600513,438.81067 49.600513,359.30933 " />
      <polygon
         id="Mesh_.:._125"
         points="49.600513,1023.9897 0.022528,1023.9897 0.022528,1383.2847 49.600513,1383.2847 49.600513,1023.9897 " />
      <polygon
         id="Mesh_.:._127"
         points="49.600513,0.02050781 0.022528,0.02050781 0.022528,359.30933 49.600513,359.30933 49.600513,0.02050781 " />
      <polygon
         id="Mesh_.:._124"
         points="49.600513,1383.2847 0.022528,1383.2847 0.022528,1462.7881 49.600513,1462.7881 49.600513,1383.2847 " />
      <polygon
         id="Mesh_.:._123"
         points="49.600513,1462.7881 0.022528,1462.7881 0.02048,1968.4741 49.600513,1968.4741 49.600513,1462.7881 " />
      <polygon
         id="Mesh_.:._126"
         points="49.600513,1968.4741 0.02048,1968.4741 0.02048,2047.9795 49.600513,2047.9795 49.600513,1968.4741 " />
    </g>
    <g
       id="g75020">
      <polygon
         id="Mesh_.:._128"
         points="878.9668,494.8009 878.9668,390.0437 533.99139,390.0437 533.99139,494.8009 878.9668,494.8009 " />
    </g>
  </g>
  <g
     style="fill:#df82c8;stroke:#000000"
     inkscape:label="RMU1.sto"
     id="RMU1.sto"
     transform="translate(-2189.2414,5.4323607)">
    <g
       id="g75024">
      <polygon
         id="Mesh.188_.:._0"
         points="966.18903,621.64587 921.57544,671.27087 980.96539,637.09802 966.18903,621.64587 " />
      <polygon
         id="Mesh.188_.:._1"
         points="921.57544,671.27087 980.96741,705.4397 980.96539,637.09802 921.57544,671.27087 " />
      <polygon
         id="Mesh.188_.:._2"
         points="921.57544,671.27087 966.19519,720.89392 980.96741,705.4397 921.57544,671.27087 " />
      <polygon
         id="Mesh.188_.:._3"
         points="921.57544,671.27087 876.96387,720.896 966.19519,720.89392 921.57544,671.27087 " />
      <polygon
         id="Mesh.188_.:._4"
         points="921.57544,671.27087 862.18549,705.44385 876.96387,720.896 921.57544,671.27087 " />
      <polygon
         id="Mesh.188_.:._5"
         points="921.57544,671.27087 862.18341,637.10205 862.18549,705.44385 921.57544,671.27087 " />
      <polygon
         id="Mesh.188_.:._6"
         points="921.57544,671.27087 876.95563,621.64783 862.18341,637.10205 921.57544,671.27087 " />
      <polygon
         id="Mesh.188_.:._7"
         points="921.57544,671.27087 966.18903,621.64587 876.95563,621.64783 921.57544,671.27087 " />
    </g>
    <g
       id="g75034">
      <polygon
         id="Mesh.188_.:._8"
         points="864.73114,671.36926 863.63135,670.21826 862.80804,666.18982 863.63342,667.05408 864.73114,671.36926 " />
      <polygon
         id="Mesh.188_.:._10"
         points="863.63135,670.21826 856.9856,670.21826 857.82526,666.18982 862.80804,666.18982 863.63135,670.21826 " />
      <polygon
         id="Mesh.188_.:._12"
         points="856.9856,670.21826 855.8858,671.36926 856.99994,667.05408 857.82526,666.18982 856.9856,670.21826 " />
      <polygon
         id="Mesh.188_.:._14"
         points="855.8858,671.36926 855.8858,676.4585 856.99994,670.87158 856.99994,667.05408 855.8858,671.36926 " />
      <polygon
         id="Mesh.188_.:._15"
         points="864.73114,676.4585 864.73114,671.36926 863.63342,667.05408 863.63342,670.86951 864.73114,676.4585 " />
      <polygon
         id="Mesh.188_.:._9"
         points="855.8858,676.4585 856.9856,677.6095 857.82526,671.73376 856.99994,670.87158 855.8858,676.4585 " />
      <polygon
         id="Mesh.188_.:._11"
         points="856.9856,677.6095 863.63135,677.6095 862.80804,671.73376 857.82526,671.73376 856.9856,677.6095 " />
      <polygon
         id="Mesh.188_.:._13"
         points="863.63135,677.6095 864.73114,676.4585 863.63342,670.86951 862.80804,671.73376 863.63135,677.6095 " />
    </g>
  </g>
  <g
     style="fill:#b4e782;stroke:#000000"
     inkscape:label="RMU1.tst"
     id="RMU1.tst"
     transform="translate(-2189.2414,5.4323607)">
    <g
       id="g75045">
      <polygon
         id="Mesh.189_.:._0"
         points="958.71387,1085.399 914.96857,1134.0575 973.20343,1100.5502 958.71387,1085.399 " />
      <polygon
         id="Mesh.189_.:._1"
         points="914.96857,1134.0575 973.20551,1167.5607 973.20343,1100.5502 914.96857,1134.0575 " />
      <polygon
         id="Mesh.189_.:._2"
         points="914.96857,1134.0575 958.71997,1182.7159 973.20551,1167.5607 914.96857,1134.0575 " />
      <polygon
         id="Mesh.189_.:._3"
         points="914.96857,1134.0575 871.22534,1182.718 958.71997,1182.7159 914.96857,1134.0575 " />
      <polygon
         id="Mesh.189_.:._4"
         points="914.96857,1134.0575 856.73572,1167.5668 871.22534,1182.718 914.96857,1134.0575 " />
      <polygon
         id="Mesh.189_.:._5"
         points="914.96857,1134.0575 856.7337,1100.5543 856.73572,1167.5668 914.96857,1134.0575 " />
      <polygon
         id="Mesh.189_.:._6"
         points="914.96857,1134.0575 871.21918,1085.4011 856.7337,1100.5543 914.96857,1134.0575 " />
      <polygon
         id="Mesh.189_.:._7"
         points="914.96857,1134.0575 958.71387,1085.399 871.21918,1085.4011 914.96857,1134.0575 " />
    </g>
    <g
       id="g75055">
      <polygon
         id="Mesh.189_.:._8"
         points="851.96594,1141.4405 852.55579,1140.824 851.96393,1134.2766 851.52155,1134.7394 851.96594,1141.4405 " />
      <polygon
         id="Mesh.189_.:._10"
         points="852.55579,1140.824 852.55579,1138.0961 851.96393,1132.2327 851.96393,1134.2766 852.55579,1140.824 " />
      <polygon
         id="Mesh.189_.:._12"
         points="852.55579,1138.0961 851.96594,1137.4797 851.52155,1131.7698 851.96393,1132.2327 852.55579,1138.0961 " />
      <polygon
         id="Mesh.189_.:._13"
         points="851.96594,1137.4797 848.40448,1137.4797 848.85095,1131.7698 851.52155,1131.7698 851.96594,1137.4797 " />
      <polygon
         id="Mesh.189_.:._14"
         points="848.40448,1141.4405 851.96594,1141.4405 851.52155,1134.7394 848.85095,1134.7394 848.40448,1141.4405 " />
      <polygon
         id="Mesh.189_.:._15"
         points="848.40448,1137.4797 847.81464,1138.0961 848.40857,1132.2327 848.85095,1131.7698 848.40448,1137.4797 " />
      <polygon
         id="Mesh.189_.:._9"
         points="847.81464,1138.0961 847.81464,1140.824 848.40857,1134.2766 848.40857,1132.2327 847.81464,1138.0961 " />
      <polygon
         id="Mesh.189_.:._11"
         points="847.81464,1140.824 848.40448,1141.4405 848.85095,1134.7394 848.40857,1134.2766 847.81464,1140.824 " />
    </g>
  </g>
  <g
     style="fill:#8595e5;stroke:#000000"
     inkscape:label="RMU1.bt01"
     id="RMU1.bt01"
     transform="translate(-2189.2414,5.4323607)">
    <g
       id="g75066">
      <polygon
         id="Mesh.003_.:._0"
         points="715.45856,629.81738 661.68219,676.93567 733.26794,647.17822 715.45856,629.81738 " />
      <polygon
         id="Mesh.003_.:._1"
         points="661.68219,676.93567 733.27002,706.68896 733.26794,647.17822 661.68219,676.93567 " />
      <polygon
         id="Mesh.003_.:._2"
         points="661.68219,676.93567 715.46472,724.052 733.27002,706.68896 661.68219,676.93567 " />
      <polygon
         id="Mesh.003_.:._3"
         points="661.68219,676.93567 607.90784,724.05396 715.46472,724.052 661.68219,676.93567 " />
      <polygon
         id="Mesh.003_.:._4"
         points="661.68219,676.93567 590.09637,706.69312 607.90784,724.05396 661.68219,676.93567 " />
      <polygon
         id="Mesh.003_.:._5"
         points="661.68219,676.93567 590.09436,647.1803 590.09637,706.69312 661.68219,676.93567 " />
      <polygon
         id="Mesh.003_.:._6"
         points="661.68219,676.93567 607.90167,629.81934 590.09436,647.1803 661.68219,676.93567 " />
      <polygon
         id="Mesh.003_.:._7"
         points="661.68219,676.93567 715.45856,629.81738 607.90167,629.81934 661.68219,676.93567 " />
    </g>
    <g
       id="g75076">
      <polygon
         id="Mesh.003_.:._8"
         points="590.12299,678.43896 590.12097,675.02283 589.10107,680.52783 589.10107,683.09192 590.12299,678.43896 " />
      <polygon
         id="Mesh.003_.:._10"
         points="590.12097,675.02283 589.10107,674.02551 588.33307,679.7804 589.10107,680.52783 590.12097,675.02283 " />
      <polygon
         id="Mesh.003_.:._11"
         points="589.10107,674.02551 582.92633,674.02551 583.7005,679.7804 588.33307,679.7804 589.10107,674.02551 " />
      <polygon
         id="Mesh.003_.:._13"
         points="582.92633,674.02551 581.90234,675.02283 582.93451,680.52783 583.7005,679.7804 582.92633,674.02551 " />
      <polygon
         id="Mesh.003_.:._14"
         points="589.10107,679.4342 590.12299,678.43896 589.10107,683.09192 588.33307,683.8374 589.10107,679.4342 " />
      <polygon
         id="Mesh.003_.:._15"
         points="581.90234,675.02283 581.90234,678.43896 582.93451,683.09192 582.93451,680.52783 581.90234,675.02283 " />
      <polygon
         id="Mesh.003_.:._9"
         points="581.90234,678.43896 582.92633,679.4342 583.70251,683.8374 582.93451,683.09192 581.90234,678.43896 " />
      <polygon
         id="Mesh.003_.:._12"
         points="582.92633,679.4342 589.10107,679.4342 588.33307,683.8374 583.70251,683.8374 582.92633,679.4342 " />
    </g>
  </g>
  <g
     style="fill:#a3b0f1;stroke:#000000"
     inkscape:label="RMU1.bt00"
     id="RMU1.bt00"
     transform="translate(-2189.2414,5.4323607)">
    <g
       id="g75087">
      <polygon
         id="Mesh.001_.:._0"
         points="713.2959,628.40625 658.40741,676.49951 731.47595,646.12561 713.2959,628.40625 " />
      <polygon
         id="Mesh.001_.:._1"
         points="658.40741,676.49951 731.47803,706.86719 731.47595,646.12561 658.40741,676.49951 " />
      <polygon
         id="Mesh.001_.:._2"
         points="658.40741,676.49951 713.30408,724.59058 731.47803,706.86719 658.40741,676.49951 " />
      <polygon
         id="Mesh.001_.:._3"
         points="658.40741,676.49951 603.521,724.59265 713.30408,724.59058 658.40741,676.49951 " />
      <polygon
         id="Mesh.001_.:._4"
         points="658.40741,676.49951 585.33887,706.87134 603.521,724.59265 658.40741,676.49951 " />
      <polygon
         id="Mesh.001_.:._5"
         points="658.40741,676.49951 585.33887,646.12964 585.33887,706.87134 658.40741,676.49951 " />
      <polygon
         id="Mesh.001_.:._6"
         points="658.40741,676.49951 603.51282,628.40625 585.33887,646.12964 658.40741,676.49951 " />
      <polygon
         id="Mesh.001_.:._7"
         points="658.40741,676.49951 713.2959,628.40625 603.51282,628.40625 658.40741,676.49951 " />
    </g>
    <g
       id="g75097">
      <polygon
         id="Mesh.001_.:._8"
         points="603.61731,674.61328 602.03009,673.06702 600.84021,681.99426 602.03009,683.15344 603.61731,674.61328 " />
      <polygon
         id="Mesh.001_.:._9"
         points="602.03009,673.06702 592.45361,673.06702 593.65784,681.99426 600.84021,681.99426 602.03009,673.06702 " />
      <polygon
         id="Mesh.001_.:._11"
         points="592.45361,673.06702 590.86847,674.61328 592.46796,683.15344 593.65784,681.99426 592.45361,673.06702 " />
      <polygon
         id="Mesh.001_.:._13"
         points="590.86847,674.61328 590.86847,679.91138 592.46796,687.12854 592.46796,683.15344 590.86847,674.61328 " />
      <polygon
         id="Mesh.001_.:._14"
         points="603.61731,679.91138 603.61731,674.61328 602.03009,683.15344 602.03009,687.12854 603.61731,679.91138 " />
      <polygon
         id="Mesh.001_.:._15"
         points="590.86847,679.91138 592.45361,681.45764 593.65784,688.28772 592.46796,687.12854 590.86847,679.91138 " />
      <polygon
         id="Mesh.001_.:._10"
         points="592.45361,681.45764 602.0321,681.45764 600.84021,688.28772 593.65784,688.28772 592.45361,681.45764 " />
      <polygon
         id="Mesh.001_.:._12"
         points="602.0321,681.45764 603.61731,679.91138 602.03009,687.12854 600.84021,688.28772 602.0321,681.45764 " />
    </g>
  </g>
  <g
     style="fill:#9beffd;stroke:#000000"
     inkscape:label="RMU1.pge"
     id="RMU1.pge"
     transform="translate(-2189.2414,5.4323607)">
    <g
       id="g75108">
      <polygon
         id="Mesh.029_.:._0"
         points="963.42017,933.47424 918.84747,983.05432 978.1842,948.91211 963.42017,933.47424 " />
      <polygon
         id="Mesh.029_.:._1"
         points="918.84747,983.05432 978.1842,1017.1945 978.1842,948.91211 918.84747,983.05432 " />
      <polygon
         id="Mesh.029_.:._2"
         points="918.84747,983.05432 963.42633,1032.6364 978.1842,1017.1945 918.84747,983.05432 " />
      <polygon
         id="Mesh.029_.:._3"
         points="918.84747,983.05432 874.27277,1032.6364 963.42633,1032.6364 918.84747,983.05432 " />
      <polygon
         id="Mesh.029_.:._4"
         points="918.84747,983.05432 859.5108,1017.1986 874.27277,1032.6364 918.84747,983.05432 " />
      <polygon
         id="Mesh.029_.:._5"
         points="918.84747,983.05432 859.50873,948.91821 859.5108,1017.1986 918.84747,983.05432 " />
      <polygon
         id="Mesh.029_.:._6"
         points="918.84747,983.05432 874.2666,933.47632 859.50873,948.91821 918.84747,983.05432 " />
      <polygon
         id="Mesh.029_.:._7"
         points="918.84747,983.05432 963.42017,933.47424 874.2666,933.47632 918.84747,983.05432 " />
    </g>
    <g
       id="g75118">
      <polygon
         id="Mesh.029_.:._8"
         points="859.70532,984.92212 858.90662,984.08655 858.29224,978.05103 858.89026,978.67773 859.70532,984.92212 " />
      <polygon
         id="Mesh.029_.:._9"
         points="858.90662,984.08655 854.08771,984.08655 854.67749,978.05103 858.29224,978.05103 858.90662,984.08655 " />
      <polygon
         id="Mesh.029_.:._11"
         points="854.08771,984.08655 853.28894,984.92212 854.07947,978.67773 854.67749,978.05103 854.08771,984.08655 " />
      <polygon
         id="Mesh.029_.:._13"
         points="853.28894,984.92212 853.28894,988.61255 854.07947,981.44666 854.07947,978.67773 853.28894,984.92212 " />
      <polygon
         id="Mesh.029_.:._14"
         points="859.70532,988.61255 859.70532,984.92212 858.89026,978.67773 858.89026,981.44666 859.70532,988.61255 " />
      <polygon
         id="Mesh.029_.:._15"
         points="853.28894,988.61255 854.08771,989.44824 854.67749,982.07129 854.07947,981.44666 853.28894,988.61255 " />
      <polygon
         id="Mesh.029_.:._10"
         points="854.08771,989.44824 858.90662,989.44824 858.29224,982.07129 854.67749,982.07129 854.08771,989.44824 " />
      <polygon
         id="Mesh.029_.:._12"
         points="858.90662,989.44824 859.70532,988.61255 858.89026,981.44666 858.29224,982.07129 858.90662,989.44824 " />
    </g>
  </g>
  <g
     style="fill:#cfa8fb;stroke:#000000"
     inkscape:label="RMU1.off"
     id="RMU1.off"
     transform="translate(-2189.2414,5.4323607)">
    <polygon
       id="Mesh.028_.:._0"
       points="1320.6508,727.82642 1320.6508,489.66248 1113.8846,489.66248 1113.8846,727.82642 1320.6508,727.82642 " />
  </g>
  <g
     style="fill:#ecdff4;stroke:#000000"
     inkscape:label="RMU1.bt03"
     id="RMU1.bt03"
     transform="translate(-2189.2414,5.4323607)">
    <g
       id="g75131">
      <polygon
         id="Mesh.005_.:._0"
         points="618.98138,784.64001 664.59851,824.61084 603.87122,799.36719 618.98138,784.64001 " />
      <polygon
         id="Mesh.005_.:._1"
         points="664.59851,824.61084 603.87122,849.85034 603.87122,799.36719 664.59851,824.61084 " />
      <polygon
         id="Mesh.005_.:._2"
         points="664.59851,824.61084 618.97522,864.57751 603.87122,849.85034 664.59851,824.61084 " />
      <polygon
         id="Mesh.005_.:._3"
         points="664.59851,824.61084 710.21362,864.57751 618.97522,864.57751 664.59851,824.61084 " />
      <polygon
         id="Mesh.005_.:._4"
         points="664.59851,824.61084 725.32379,849.85242 710.21362,864.57751 664.59851,824.61084 " />
      <polygon
         id="Mesh.005_.:._5"
         points="664.59851,824.61084 725.32581,799.37122 725.32379,849.85242 664.59851,824.61084 " />
      <polygon
         id="Mesh.005_.:._6"
         points="664.59851,824.61084 710.21979,784.64209 725.32581,799.37122 664.59851,824.61084 " />
      <polygon
         id="Mesh.005_.:._7"
         points="664.59851,824.61084 618.98138,784.64001 710.21979,784.64209 664.59851,824.61084 " />
    </g>
    <g
       id="g75141">
      <polygon
         id="Mesh.005_.:._8"
         points="606.17731,821.78455 605.57312,821.1947 606.18341,822.91101 606.63605,823.35339 606.17731,821.78455 " />
      <polygon
         id="Mesh.005_.:._10"
         points="605.57312,821.1947 605.57312,819.17542 606.18341,821.39551 606.18341,822.91101 605.57312,821.1947 " />
      <polygon
         id="Mesh.005_.:._12"
         points="605.57312,819.17542 606.17731,818.58557 606.63806,820.95313 606.18341,821.39551 605.57312,819.17542 " />
      <polygon
         id="Mesh.005_.:._13"
         points="606.17731,818.58557 609.82886,818.58557 609.37628,820.95313 606.63806,820.95313 606.17731,818.58557 " />
      <polygon
         id="Mesh.005_.:._14"
         points="609.82886,821.78455 606.17731,821.78455 606.63605,823.35339 609.37628,823.35339 609.82886,821.78455 " />
      <polygon
         id="Mesh.005_.:._15"
         points="609.82886,818.58557 610.43506,819.17542 609.82886,821.39551 609.37628,820.95313 609.82886,818.58557 " />
      <polygon
         id="Mesh.005_.:._9"
         points="610.43506,819.17542 610.43506,821.1947 609.82886,822.91101 609.82886,821.39551 610.43506,819.17542 " />
      <polygon
         id="Mesh.005_.:._11"
         points="610.43506,821.1947 609.82886,821.78455 609.37628,823.35339 609.82886,822.91101 610.43506,821.1947 " />
    </g>
  </g>
  <g
     style="fill:#e28acc;stroke:#000000"
     inkscape:label="RMU1.bt02"
     id="RMU1.bt02"
     transform="translate(-2189.2414,5.4323607)">
    <g
       id="g75152">
      <polygon
         id="Mesh.004_.:._0"
         points="710.21362,787.81445 664.5965,827.78516 725.32172,802.54163 710.21362,787.81445 " />
      <polygon
         id="Mesh.004_.:._1"
         points="664.5965,827.78516 725.32379,853.02478 725.32172,802.54163 664.5965,827.78516 " />
      <polygon
         id="Mesh.004_.:._2"
         points="664.5965,827.78516 710.21979,867.75195 725.32379,853.02478 664.5965,827.78516 " />
      <polygon
         id="Mesh.004_.:._3"
         points="664.5965,827.78516 618.98138,867.75195 710.21979,867.75195 664.5965,827.78516 " />
      <polygon
         id="Mesh.004_.:._4"
         points="664.5965,827.78516 603.87122,853.02686 618.98138,867.75195 664.5965,827.78516 " />
      <polygon
         id="Mesh.004_.:._5"
         points="664.5965,827.78516 603.8692,802.54565 603.87122,853.02686 664.5965,827.78516 " />
      <polygon
         id="Mesh.004_.:._6"
         points="664.5965,827.78516 618.97321,787.81641 603.8692,802.54565 664.5965,827.78516 " />
      <polygon
         id="Mesh.004_.:._7"
         points="664.5965,827.78516 710.21362,787.81445 618.97321,787.81641 664.5965,827.78516 " />
    </g>
    <g
       id="g75162">
      <polygon
         id="Mesh.004_.:._8"
         points="599.10352,830.92688 608.81921,830.92688 607.61292,835.09863 600.32617,835.09863 599.10352,830.92688 " />
      <polygon
         id="Mesh.004_.:._10"
         points="608.81921,830.92688 610.42688,829.35803 608.81921,833.92102 607.61292,835.09863 608.81921,830.92688 " />
      <polygon
         id="Mesh.004_.:._12"
         points="610.42688,829.35803 610.42688,823.98206 608.81921,829.8905 608.81921,833.92102 610.42688,829.35803 " />
      <polygon
         id="Mesh.004_.:._13"
         points="597.49579,829.35803 599.10352,830.92688 600.32617,835.09863 599.1178,833.92102 597.49579,829.35803 " />
      <polygon
         id="Mesh.004_.:._14"
         points="610.42688,823.98206 608.81921,822.41333 607.6109,828.71301 608.81921,829.8905 610.42688,823.98206 " />
      <polygon
         id="Mesh.004_.:._15"
         points="608.81921,822.41333 599.10352,822.41333 600.3241,828.71301 607.6109,828.71301 608.81921,822.41333 " />
      <polygon
         id="Mesh.004_.:._9"
         points="599.10352,822.41333 597.49377,823.98206 599.1178,829.8905 600.3241,828.71301 599.10352,822.41333 " />
      <polygon
         id="Mesh.004_.:._11"
         points="597.49377,823.98206 597.49579,829.35803 599.1178,833.92102 599.1178,829.8905 597.49377,823.98206 " />
    </g>
  </g>
  <g
     style="fill:#e2d6e1;stroke:#000000"
     inkscape:label="RMU1.bt04"
     id="RMU1.bt04"
     transform="translate(-2189.2414,5.4323607)">
    <g
       id="g75173">
      <polygon
         id="Mesh.006_.:._0"
         points="710.21362,787.81445 664.5965,827.78516 725.32172,802.54163 710.21362,787.81445 " />
      <polygon
         id="Mesh.006_.:._1"
         points="664.5965,827.78516 725.32379,853.02478 725.32172,802.54163 664.5965,827.78516 " />
      <polygon
         id="Mesh.006_.:._2"
         points="664.5965,827.78516 710.21979,867.75195 725.32379,853.02478 664.5965,827.78516 " />
      <polygon
         id="Mesh.006_.:._3"
         points="664.5965,827.78516 618.98138,867.75195 710.21979,867.75195 664.5965,827.78516 " />
      <polygon
         id="Mesh.006_.:._4"
         points="664.5965,827.78516 603.87122,853.02686 618.98138,867.75195 664.5965,827.78516 " />
      <polygon
         id="Mesh.006_.:._5"
         points="664.5965,827.78516 603.8692,802.54565 603.87122,853.02686 664.5965,827.78516 " />
      <polygon
         id="Mesh.006_.:._6"
         points="664.5965,827.78516 618.97321,787.81641 603.8692,802.54565 664.5965,827.78516 " />
      <polygon
         id="Mesh.006_.:._7"
         points="664.5965,827.78516 710.21362,787.81445 618.97321,787.81641 664.5965,827.78516 " />
    </g>
    <g
       id="g75183">
      <polygon
         id="Mesh.006_.:._8"
         points="606.08099,831.88525 607.54535,830.45789 606.07898,834.61536 604.97919,835.6864 606.08099,831.88525 " />
      <polygon
         id="Mesh.006_.:._10"
         points="607.54535,830.45789 607.54535,825.56104 606.07898,830.94116 606.07898,834.61536 607.54535,830.45789 " />
      <polygon
         id="Mesh.006_.:._12"
         points="607.54535,825.56104 606.07898,824.13159 604.97919,829.87012 606.07898,830.94116 607.54535,825.56104 " />
      <polygon
         id="Mesh.006_.:._13"
         points="606.07898,824.13159 597.22955,824.13367 598.34369,829.87012 604.97919,829.87012 606.07898,824.13159 " />
      <polygon
         id="Mesh.006_.:._14"
         points="597.22955,831.88525 606.08099,831.88525 604.97919,835.6864 598.34369,835.6864 597.22955,831.88525 " />
      <polygon
         id="Mesh.006_.:._15"
         points="597.22955,824.13367 595.76526,825.56104 597.2439,830.94324 598.34369,829.87012 597.22955,824.13367 " />
      <polygon
         id="Mesh.006_.:._9"
         points="595.76526,825.56104 595.76526,830.45789 597.2439,834.61536 597.2439,830.94324 595.76526,825.56104 " />
      <polygon
         id="Mesh.006_.:._11"
         points="595.76526,830.45789 597.22955,831.88525 598.34369,835.6864 597.2439,834.61536 595.76526,830.45789 " />
    </g>
  </g>
  <g
     style="fill:#adf2cb;stroke:#000000"
     inkscape:label="RMU1.bt05"
     id="RMU1.bt05"
     transform="translate(-2189.2414,5.4323607)">
    <g
       id="g75194">
      <polygon
         id="Mesh.009_.:._0"
         points="618.98138,787.81445 664.59851,827.78516 603.87122,802.54163 618.98138,787.81445 " />
      <polygon
         id="Mesh.009_.:._1"
         points="664.59851,827.78516 603.87122,853.02478 603.87122,802.54163 664.59851,827.78516 " />
      <polygon
         id="Mesh.009_.:._2"
         points="664.59851,827.78516 618.97522,867.75195 603.87122,853.02478 664.59851,827.78516 " />
      <polygon
         id="Mesh.009_.:._3"
         points="664.59851,827.78516 710.21362,867.75195 618.97522,867.75195 664.59851,827.78516 " />
      <polygon
         id="Mesh.009_.:._4"
         points="664.59851,827.78516 725.32379,853.02686 710.21362,867.75195 664.59851,827.78516 " />
      <polygon
         id="Mesh.009_.:._5"
         points="664.59851,827.78516 725.32581,802.54565 725.32379,853.02686 664.59851,827.78516 " />
      <polygon
         id="Mesh.009_.:._6"
         points="664.59851,827.78516 710.21979,787.81641 725.32581,802.54565 664.59851,827.78516 " />
      <polygon
         id="Mesh.009_.:._7"
         points="664.59851,827.78516 618.98138,787.81445 710.21979,787.81641 664.59851,827.78516 " />
    </g>
    <g
       id="g75204">
      <polygon
         id="Mesh.009_.:._8"
         points="612.67151,825.31128 612.67151,829.19019 611.51025,832.48535 611.51025,829.5752 612.67151,825.31128 " />
      <polygon
         id="Mesh.009_.:._10"
         points="612.67151,829.19019 611.51025,830.32263 610.63782,833.33325 611.51025,832.48535 612.67151,829.19019 " />
      <polygon
         id="Mesh.009_.:._13"
         points="611.51025,830.32263 604.49792,830.32263 605.37854,833.33325 610.63782,833.33325 611.51025,830.32263 " />
      <polygon
         id="Mesh.009_.:._14"
         points="611.51025,824.17871 612.67151,825.31128 611.51025,829.5752 610.63989,828.72522 611.51025,824.17871 " />
      <polygon
         id="Mesh.009_.:._15"
         points="604.49792,830.32263 603.33673,829.19019 604.50818,832.48535 605.37854,833.33325 604.49792,830.32263 " />
      <polygon
         id="Mesh.009_.:._9"
         points="603.33673,829.19019 603.33673,825.31128 604.50818,829.5752 604.50818,832.48535 603.33673,829.19019 " />
      <polygon
         id="Mesh.009_.:._11"
         points="603.33673,825.31128 604.49792,824.17871 605.37854,828.72522 604.50818,829.5752 603.33673,825.31128 " />
      <polygon
         id="Mesh.009_.:._12"
         points="604.49792,824.17871 611.51025,824.17871 610.63989,828.72522 605.37854,828.72522 604.49792,824.17871 " />
    </g>
  </g>
  <g
     style="fill:#dd9c7d;stroke:#000000"
     inkscape:label="RMU1.knob1"
     id="RMU1.knob1"
     transform="translate(-2189.2414,5.4323607)">
    <g
       id="g75215">
      <polygon
         id="Mesh.022_.:._0"
         points="1344.7004,917.91565 1190.0334,917.91565 1239.0585,946.21692 1295.6754,946.21692 1344.7004,917.91565 " />
      <polygon
         id="Mesh.022_.:._1"
         points="1373.0017,868.87634 1161.7341,868.87634 1190.0334,917.91565 1344.7004,917.91565 1373.0017,868.87634 " />
      <polygon
         id="Mesh.022_.:._2"
         points="1373.0017,812.27368 1161.7341,812.27368 1161.7341,868.87634 1373.0017,868.87634 1373.0017,812.27368 " />
      <polygon
         id="Mesh.022_.:._3"
         points="1373.0017,812.27368 1344.7004,763.25073 1190.0334,763.25073 1161.7341,812.27368 1373.0017,812.27368 " />
      <polygon
         id="Mesh.022_.:._4"
         points="1344.7004,763.25073 1295.6754,734.94934 1239.0585,734.94934 1190.0334,763.25073 1344.7004,763.25073 " />
    </g>
    <g
       id="g75222">
      <polygon
         id="Mesh.022_.:._5"
         points="1155.0536,997.08923 1155.0536,949.89514 1102.1702,942.28479 1102.1702,993.29224 1155.0536,997.08923 " />
      <polygon
         id="Mesh.022_.:._6"
         points="1155.0536,1044.3735 1155.0536,997.08923 1102.1702,993.29224 1102.1702,1044.3694 1155.0536,1044.3735 " />
      <polygon
         id="Mesh.022_.:._7"
         points="1102.1702,1044.3694 1102.1702,1095.4609 1155.0536,1091.6475 1155.0536,1044.3735 1102.1702,1044.3694 " />
      <polygon
         id="Mesh.022_.:._8"
         points="1102.1702,1095.4609 1102.1702,1146.4499 1155.0536,1138.8416 1155.0536,1091.6475 1102.1702,1095.4609 " />
      <polygon
         id="Mesh.022_.:._9"
         points="1102.1702,1146.4499 1102.1702,1197.2854 1155.0536,1185.8739 1155.0536,1138.8416 1102.1702,1146.4499 " />
      <polygon
         id="Mesh.022_.:._10"
         points="1102.1702,1197.2854 1102.1702,1247.8484 1155.0536,1232.6851 1155.0536,1185.8739 1102.1702,1197.2854 " />
      <polygon
         id="Mesh.022_.:._11"
         points="1102.1702,1247.8484 1102.1702,1298.092 1155.0536,1279.1726 1155.0536,1232.6851 1102.1702,1247.8484 " />
      <polygon
         id="Mesh.022_.:._12"
         points="1102.1702,1298.092 1102.1702,1347.8973 1155.0536,1325.2772 1155.0536,1279.1726 1102.1702,1298.092 " />
      <polygon
         id="Mesh.022_.:._16"
         points="1102.1702,891.45959 1102.1702,942.28479 1155.0536,949.89514 1155.0536,902.85876 1102.1702,891.45959 " />
      <polygon
         id="Mesh.022_.:._15"
         points="1102.1702,840.88013 1102.1702,891.45959 1155.0536,902.85876 1155.0536,856.06201 1102.1702,840.88013 " />
      <polygon
         id="Mesh.022_.:._14"
         points="1102.1702,790.6488 1102.1702,840.88013 1155.0536,856.06201 1155.0536,809.56421 1102.1702,790.6488 " />
      <polygon
         id="Mesh.022_.:._13"
         points="1102.1702,740.83118 1102.1702,790.6488 1155.0536,809.56421 1155.0536,763.46985 1102.1702,740.83118 " />
    </g>
  </g>
  <g
     style="fill:#feb1d3;stroke:#000000"
     inkscape:label="RMU1.knob"
     id="RMU1.knob"
     transform="translate(-2189.2414,5.4323607)">
    <g
       id="g75237">
      <polygon
         id="Mesh.021_.:._0"
         points="1379.0781,890.48889 1379.0781,943.2002 1429.4753,943.2002 1429.4753,890.48889 1379.0781,890.48889 " />
      <polygon
         id="Mesh.021_.:._1"
         points="1379.0781,837.78357 1379.0781,890.48889 1429.4753,890.48889 1429.4753,837.78357 1379.0781,837.78357 " />
      <polygon
         id="Mesh.021_.:._2"
         points="1379.0781,785.07825 1379.0781,837.78357 1429.4753,837.78357 1429.4753,785.07825 1379.0781,785.07825 " />
      <polygon
         id="Mesh.021_.:._3"
         points="1379.0781,732.37915 1379.0781,785.07825 1429.4753,785.07825 1429.4753,732.37915 1379.0781,732.37915 " />
      <polygon
         id="Mesh.021_.:._11"
         points="1379.0781,943.2002 1379.0781,995.89941 1429.4753,995.89941 1429.4753,943.2002 1379.0781,943.2002 " />
      <polygon
         id="Mesh.021_.:._10"
         points="1379.0781,995.89941 1379.0781,1048.6047 1429.4753,1048.6047 1429.4753,995.89941 1379.0781,995.89941 " />
      <polygon
         id="Mesh.021_.:._9"
         points="1379.0781,1048.6047 1379.0781,1101.3058 1429.4753,1101.3058 1429.4753,1048.6047 1379.0781,1048.6047 " />
      <polygon
         id="Mesh.021_.:._8"
         points="1379.0781,1101.3058 1379.0781,1154.0173 1429.4753,1154.0173 1429.4753,1101.3058 1379.0781,1101.3058 " />
      <polygon
         id="Mesh.021_.:._7"
         points="1379.0781,1154.0173 1379.0781,1206.7225 1429.4753,1206.7225 1429.4753,1154.0173 1379.0781,1154.0173 " />
      <polygon
         id="Mesh.021_.:._6"
         points="1379.0781,1206.7225 1379.0781,1259.4258 1429.4753,1259.4258 1429.4753,1206.7225 1379.0781,1206.7225 " />
      <polygon
         id="Mesh.021_.:._5"
         points="1379.0781,1259.4258 1379.0781,1312.127 1429.4753,1312.127 1429.4753,1259.4258 1379.0781,1259.4258 " />
      <polygon
         id="Mesh.021_.:._4"
         points="1379.0781,1312.127 1379.0781,1364.8323 1429.4753,1364.8323 1429.4753,1312.127 1379.0781,1312.127 " />
    </g>
    <g
       id="g75251">
      <polygon
         id="Mesh.021_.:._12"
         points="1374.1548,1133.0867 1346.8488,1085.7963 1321.5355,1111.1219 1339.5681,1142.3478 1374.1548,1133.0867 " />
      <polygon
         id="Mesh.021_.:._13"
         points="1374.1548,1187.6864 1374.1548,1133.0867 1339.5681,1142.3478 1339.5681,1178.4151 1374.1548,1187.6864 " />
      <polygon
         id="Mesh.021_.:._14"
         points="1346.8488,1234.9666 1374.1548,1187.6864 1339.5681,1178.4151 1321.5355,1209.643 1346.8488,1234.9666 " />
      <polygon
         id="Mesh.021_.:._15"
         points="1299.5686,1262.2623 1346.8488,1234.9666 1321.5355,1209.643 1290.2994,1227.6757 1299.5686,1262.2623 " />
      <polygon
         id="Mesh.021_.:._16"
         points="1244.9709,1262.2623 1299.5686,1262.2623 1290.2994,1227.6757 1254.2402,1227.6757 1244.9709,1262.2623 " />
      <polygon
         id="Mesh.021_.:._17"
         points="1197.6888,1234.9666 1244.9709,1262.2623 1254.2402,1227.6757 1223.0042,1209.643 1197.6888,1234.9666 " />
      <polygon
         id="Mesh.021_.:._18"
         points="1170.3849,1187.6864 1197.6888,1234.9666 1223.0042,1209.643 1204.9797,1178.4151 1170.3849,1187.6864 " />
      <polygon
         id="Mesh.021_.:._19"
         points="1170.3849,1133.0867 1170.3849,1187.6864 1204.9797,1178.4151 1204.9797,1142.3478 1170.3849,1133.0867 " />
      <polygon
         id="Mesh.021_.:._20"
         points="1197.6888,1085.7963 1170.3849,1133.0867 1204.9797,1142.3478 1223.0042,1111.1219 1197.6888,1085.7963 " />
      <polygon
         id="Mesh.021_.:._21"
         points="1244.9709,1058.5027 1197.6888,1085.7963 1223.0042,1111.1219 1254.2402,1093.0872 1244.9709,1058.5027 " />
      <polygon
         id="Mesh.021_.:._22"
         points="1299.5686,1058.5027 1244.9709,1058.5027 1254.2402,1093.0872 1290.2994,1093.0872 1299.5686,1058.5027 " />
      <polygon
         id="Mesh.021_.:._23"
         points="1346.8488,1085.7963 1299.5686,1058.5027 1290.2994,1093.0872 1321.5355,1111.1219 1346.8488,1085.7963 " />
    </g>
  </g>
  <g
     style="fill:#a38cf9;stroke:#000000"
     inkscape:label="RMU1.id"
     id="RMU1.id"
     transform="translate(-2189.2414,5.4323607)">
    <g
       id="g75266">
      <polygon
         id="Mesh.020_.:._0"
         points="965.33911,776.79614 920.46539,826.71204 980.1994,792.34045 965.33911,776.79614 " />
      <polygon
         id="Mesh.020_.:._1"
         points="920.46539,826.71204 980.20349,861.07544 980.1994,792.34045 920.46539,826.71204 " />
      <polygon
         id="Mesh.020_.:._2"
         points="920.46539,826.71204 965.34326,876.62183 980.20349,861.07544 920.46539,826.71204 " />
      <polygon
         id="Mesh.020_.:._3"
         points="920.46539,826.71204 875.59375,876.6239 965.34326,876.62183 920.46539,826.71204 " />
      <polygon
         id="Mesh.020_.:._4"
         points="920.46539,826.71204 860.72937,861.08362 875.59375,876.6239 920.46539,826.71204 " />
      <polygon
         id="Mesh.020_.:._5"
         points="920.46539,826.71204 860.72937,792.34253 860.72937,861.08362 920.46539,826.71204 " />
      <polygon
         id="Mesh.020_.:._6"
         points="920.46539,826.71204 875.58551,776.80029 860.72937,792.34253 920.46539,826.71204 " />
      <polygon
         id="Mesh.020_.:._7"
         points="920.46539,826.71204 965.33911,776.79614 875.58551,776.80029 920.46539,826.71204 " />
    </g>
    <g
       id="g75276">
      <polygon
         id="Mesh.020_.:._8"
         points="849.25238,833.63843 854.62628,833.63843 853.95868,827.19336 849.92816,827.19336 849.25238,833.63843 " />
      <polygon
         id="Mesh.020_.:._10"
         points="854.62628,833.63843 855.51721,832.70654 854.62628,826.49292 853.95868,827.19336 854.62628,833.63843 " />
      <polygon
         id="Mesh.020_.:._12"
         points="855.51721,832.70654 855.51721,828.59009 854.62628,823.40454 854.62628,826.49292 855.51721,832.70654 " />
      <polygon
         id="Mesh.020_.:._13"
         points="848.36145,832.70654 849.25238,833.63843 849.92816,827.19336 849.26257,826.49292 848.36145,832.70654 " />
      <polygon
         id="Mesh.020_.:._14"
         points="855.51721,828.59009 854.62628,827.6582 853.95868,822.70825 854.62628,823.40454 855.51721,828.59009 " />
      <polygon
         id="Mesh.020_.:._15"
         points="854.62628,827.6582 849.25238,827.6582 849.92816,822.70825 853.95868,822.70825 854.62628,827.6582 " />
      <polygon
         id="Mesh.020_.:._9"
         points="849.25238,827.6582 848.36145,828.59009 849.26257,823.40454 849.92816,822.70825 849.25238,827.6582 " />
      <polygon
         id="Mesh.020_.:._11"
         points="848.36145,828.59009 848.36145,832.70654 849.26257,826.49292 849.26257,823.40454 848.36145,828.59009 " />
    </g>
  </g>
  <g
     style="fill:#cee1e8;stroke:#000000"
     inkscape:label="RMU1.lamp"
     id="RMU1.lamp"
     transform="translate(-2189.2414,5.4323607)">
    <polygon
       id="Mesh.026_.:._0"
       points="1415.6083,555.21277 1403.5558,526.14343 1389.5291,540.16821 1395.7632,555.21277 1415.6083,555.21277 " />
    <polygon
       id="Mesh.026_.:._1"
       points="1389.5291,540.16821 1374.4866,555.21277 1395.7632,555.21277 1389.5291,540.16821 " />
    <polygon
       id="Mesh.026_.:._2"
       points="1374.4866,533.93408 1374.4866,555.21277 1389.5291,540.16821 1374.4866,533.93408 " />
    <polygon
       id="Mesh.026_.:._3"
       points="1403.5558,526.14343 1374.4866,514.09106 1374.4866,533.93408 1389.5291,540.16821 1403.5558,526.14343 " />
    <polygon
       id="Mesh.026_.:._4"
       points="1374.4866,514.09106 1345.4152,526.14343 1359.4419,540.16821 1374.4866,533.93408 1374.4866,514.09106 " />
    <polygon
       id="Mesh.026_.:._5"
       points="1359.4419,540.16821 1374.4866,555.21277 1374.4866,533.93408 1359.4419,540.16821 " />
    <polygon
       id="Mesh.026_.:._6"
       points="1353.2078,555.21277 1374.4866,555.21277 1359.4419,540.16821 1353.2078,555.21277 " />
    <polygon
       id="Mesh.026_.:._7"
       points="1345.4152,526.14343 1333.3647,555.21277 1353.2078,555.21277 1359.4419,540.16821 1345.4152,526.14343 " />
    <polygon
       id="Mesh.026_.:._8"
       points="1333.3647,555.21277 1345.4152,584.30261 1359.4419,570.27783 1353.2078,555.21277 1333.3647,555.21277 " />
    <polygon
       id="Mesh.026_.:._9"
       points="1359.4419,570.27783 1374.4866,555.21277 1353.2078,555.21277 1359.4419,570.27783 " />
    <polygon
       id="Mesh.026_.:._10"
       points="1374.4866,576.51001 1374.4866,555.21277 1359.4419,570.27783 1374.4866,576.51001 " />
    <polygon
       id="Mesh.026_.:._11"
       points="1345.4152,584.30261 1374.4866,596.33459 1374.4866,576.51001 1359.4419,570.27783 1345.4152,584.30261 " />
    <polygon
       id="Mesh.026_.:._12"
       points="1374.4866,596.33459 1403.5558,584.30261 1389.5291,570.27783 1374.4866,576.51001 1374.4866,596.33459 " />
    <polygon
       id="Mesh.026_.:._13"
       points="1389.5291,570.27783 1374.4866,555.21277 1374.4866,576.51001 1389.5291,570.27783 " />
    <polygon
       id="Mesh.026_.:._14"
       points="1395.7632,555.21277 1374.4866,555.21277 1389.5291,570.27783 1395.7632,555.21277 " />
    <polygon
       id="Mesh.026_.:._15"
       points="1403.5558,584.30261 1415.6083,555.21277 1395.7632,555.21277 1389.5291,570.27783 1403.5558,584.30261 " />
  </g>
  <g
     style="fill:#cf96dd;stroke:#000000"
     inkscape:label="RMU1.sq"
     id="RMU1.sq"
     transform="translate(-2189.2414,5.4323607)">
    <g
       id="g75304">
      <polygon
         id="Mesh.031_.:._0"
         points="696.62103,928.51611 650.79913,979.48462 711.79675,944.38611 696.62103,928.51611 " />
      <polygon
         id="Mesh.031_.:._1"
         points="650.79913,979.48462 711.79877,1014.5792 711.79675,944.38611 650.79913,979.48462 " />
      <polygon
         id="Mesh.031_.:._2"
         points="650.79913,979.48462 696.6272,1030.4532 711.79877,1014.5792 650.79913,979.48462 " />
      <polygon
         id="Mesh.031_.:._3"
         points="650.79913,979.48462 604.97717,1030.4553 696.6272,1030.4532 650.79913,979.48462 " />
      <polygon
         id="Mesh.031_.:._4"
         points="650.79913,979.48462 589.80145,1014.5833 604.97717,1030.4553 650.79913,979.48462 " />
      <polygon
         id="Mesh.031_.:._5"
         points="650.79913,979.48462 589.79944,944.39014 589.80145,1014.5833 650.79913,979.48462 " />
      <polygon
         id="Mesh.031_.:._6"
         points="650.79913,979.48462 604.97101,928.51819 589.79944,944.39014 650.79913,979.48462 " />
      <polygon
         id="Mesh.031_.:._7"
         points="650.79913,979.48462 696.62103,928.51611 604.97101,928.51819 650.79913,979.48462 " />
    </g>
    <g
       id="g75314">
      <polygon
         id="Mesh.031_.:._8"
         points="598.3396,969.92871 596.26904,972.09546 598.35803,976.04199 599.91248,974.41589 598.3396,969.92871 " />
      <polygon
         id="Mesh.031_.:._10"
         points="596.26904,972.09546 596.26904,981.68213 598.35803,983.23047 598.35803,976.04199 596.26904,972.09546 " />
      <polygon
         id="Mesh.031_.:._12"
         points="596.26904,981.68213 598.34161,983.849 599.91248,984.85657 598.35803,983.23047 596.26904,981.68213 " />
      <polygon
         id="Mesh.031_.:._14"
         points="610.85492,969.92871 598.3396,969.92871 599.91248,974.41589 609.29846,974.41589 610.85492,969.92871 " />
      <polygon
         id="Mesh.031_.:._15"
         points="598.34161,983.849 610.85693,983.849 609.30048,984.85657 599.91248,984.85657 598.34161,983.849 " />
      <polygon
         id="Mesh.031_.:._9"
         points="610.85693,983.849 612.92749,981.68018 610.85284,983.23047 609.30048,984.85657 610.85693,983.849 " />
      <polygon
         id="Mesh.031_.:._11"
         points="612.92749,981.68018 612.92749,972.09546 610.85284,976.04199 610.85284,983.23047 612.92749,981.68018 " />
      <polygon
         id="Mesh.031_.:._13"
         points="612.92749,972.09546 610.85492,969.92871 609.29846,974.41589 610.85284,976.04199 612.92749,972.09546 " />
    </g>
  </g>
  <g
     style="fill:#ef84bf;stroke:#000000"
     inkscape:label="RMU1.tune"
     id="RMU1.tune"
     transform="translate(-2189.2414,5.4323607)">
    <polygon
       id="Mesh.190_.:._0"
       points="1342.2367,953.21704 1204.2424,953.21704 1204.2424,1013.764 1342.2367,1013.764 1342.2367,953.21704 " />
  </g>
  <g
     style="fill:#f4ecb7;stroke:#000000"
     inkscape:label="RMU1.dme"
     id="RMU1.dme"
     transform="translate(-2189.2414,5.4323607)">
    <g
       id="g75327">
      <polygon
         id="Mesh.018_.:._0"
         points="961.97223,1239.7548 916.16663,1290.707 977.1438,1255.6206 961.97223,1239.7548 " />
      <polygon
         id="Mesh.018_.:._1"
         points="916.16663,1290.707 977.14587,1325.7871 977.1438,1255.6206 916.16663,1290.707 " />
      <polygon
         id="Mesh.018_.:._2"
         points="916.16663,1290.707 961.97839,1341.6571 977.14587,1325.7871 916.16663,1290.707 " />
      <polygon
         id="Mesh.018_.:._3"
         points="916.16663,1290.707 870.36108,1341.6571 961.97839,1341.6571 916.16663,1290.707 " />
      <polygon
         id="Mesh.018_.:._4"
         points="916.16663,1290.707 855.18951,1325.7933 870.36108,1341.6571 916.16663,1290.707 " />
      <polygon
         id="Mesh.018_.:._5"
         points="916.16663,1290.707 855.18744,1255.6247 855.18951,1325.7933 916.16663,1290.707 " />
      <polygon
         id="Mesh.018_.:._6"
         points="916.16663,1290.707 870.35492,1239.7568 855.18744,1255.6247 916.16663,1290.707 " />
      <polygon
         id="Mesh.018_.:._7"
         points="916.16663,1290.707 961.97223,1239.7548 870.35492,1239.7568 916.16663,1290.707 " />
    </g>
    <g
       id="g75337">
      <polygon
         id="Mesh.018_.:._8"
         points="984.4859,1292.1774 985.0368,1292.7549 985.44232,1285.6893 985.02863,1285.2572 984.4859,1292.1774 " />
      <polygon
         id="Mesh.018_.:._11"
         points="985.0368,1292.7549 988.36682,1292.7549 987.94086,1285.6893 985.44232,1285.6893 985.0368,1292.7549 " />
      <polygon
         id="Mesh.018_.:._13"
         points="988.36682,1292.7549 988.91779,1292.1774 988.35455,1285.2572 987.94086,1285.6893 988.36682,1292.7549 " />
      <polygon
         id="Mesh.018_.:._14"
         points="984.4859,1289.6256 984.4859,1292.1774 985.02863,1285.2572 985.02863,1283.3444 984.4859,1289.6256 " />
      <polygon
         id="Mesh.018_.:._15"
         points="988.91779,1292.1774 988.91779,1289.6256 988.35455,1283.3423 988.35455,1285.2572 988.91779,1292.1774 " />
      <polygon
         id="Mesh.018_.:._9"
         points="988.91779,1289.6256 988.36682,1289.0501 987.94086,1282.9102 988.35455,1283.3423 988.91779,1289.6256 " />
      <polygon
         id="Mesh.018_.:._10"
         points="988.36682,1289.0501 985.0368,1289.0501 985.44232,1282.9102 987.94086,1282.9102 988.36682,1289.0501 " />
      <polygon
         id="Mesh.018_.:._12"
         points="985.0368,1289.0501 984.4859,1289.6256 985.02863,1283.3444 985.44232,1282.9102 985.0368,1289.0501 " />
    </g>
  </g>
  <g
     style="fill:#95ee81;stroke:#000000"
     inkscape:label="RMU1.half"
     id="RMU1.half"
     transform="translate(-2189.2414,5.4323607)">
    <g
       id="g75348">
      <polygon
         id="Mesh.019_.:._0"
         points="698.85339,1237.3381 653.23419,1288.0834 713.96558,1253.1384 698.85339,1237.3381 " />
      <polygon
         id="Mesh.019_.:._1"
         points="653.23419,1288.0834 713.96759,1323.0223 713.96558,1253.1384 653.23419,1288.0834 " />
      <polygon
         id="Mesh.019_.:._2"
         points="653.23419,1288.0834 698.86157,1338.8268 713.96759,1323.0223 653.23419,1288.0834 " />
      <polygon
         id="Mesh.019_.:._3"
         points="653.23419,1288.0834 607.61292,1338.8268 698.86157,1338.8268 653.23419,1288.0834 " />
      <polygon
         id="Mesh.019_.:._4"
         points="653.23419,1288.0834 592.50281,1323.0285 607.61292,1338.8268 653.23419,1288.0834 " />
      <polygon
         id="Mesh.019_.:._5"
         points="653.23419,1288.0834 592.50073,1253.1425 592.50281,1323.0285 653.23419,1288.0834 " />
      <polygon
         id="Mesh.019_.:._6"
         points="653.23419,1288.0834 607.60681,1237.3401 592.50073,1253.1425 653.23419,1288.0834 " />
      <polygon
         id="Mesh.019_.:._7"
         points="653.23419,1288.0834 698.85339,1237.3381 607.60681,1237.3401 653.23419,1288.0834 " />
    </g>
    <g
       id="g75358">
      <polygon
         id="Mesh.019_.:._8"
         points="590.35034,1284.3889 590.35236,1292.9434 592.20172,1287.2745 592.20172,1280.8602 590.35034,1284.3889 " />
      <polygon
         id="Mesh.019_.:._10"
         points="590.35236,1292.9434 592.20172,1294.8766 593.5882,1288.7245 592.20172,1287.2745 590.35236,1292.9434 " />
      <polygon
         id="Mesh.019_.:._13"
         points="592.20172,1294.8766 603.36945,1294.8766 601.96454,1288.7245 593.5882,1288.7245 592.20172,1294.8766 " />
      <polygon
         id="Mesh.019_.:._15"
         points="603.36945,1294.8766 605.21881,1292.9413 603.35101,1287.2745 601.96454,1288.7245 603.36945,1294.8766 " />
      <polygon
         id="Mesh.019_.:._9"
         points="605.21881,1292.9413 605.21881,1284.3889 603.35101,1280.8602 603.35101,1287.2745 605.21881,1292.9413 " />
      <polygon
         id="Mesh.019_.:._11"
         points="605.21881,1284.3889 603.36945,1282.4556 601.96454,1279.4081 603.35101,1280.8602 605.21881,1284.3889 " />
      <polygon
         id="Mesh.019_.:._12"
         points="603.36945,1282.4556 592.19971,1282.4556 593.5882,1279.4081 601.96454,1279.4081 603.36945,1282.4556 " />
    </g>
    <g
       id="g75367">
      <polygon
         id="Mesh.019_.:._14"
         points="598.42969,1287.8971 593.86469,1292.673 598.43176,1283.9588 601.85394,1280.3789 598.42969,1287.8971 " />
    </g>
  </g>
  <g
     style="fill:#c3dfe8;stroke:#000000"
     inkscape:label="RMU1.dim"
     id="RMU1.dim"
     transform="translate(-2189.2414,5.4323607)">
    <g
       id="g75373">
      <polygon
         id="Mesh.017_.:._0"
         points="708.55682,1082.6772 662.95807,1133.4001 723.66083,1098.4714 708.55682,1082.6772 " />
      <polygon
         id="Mesh.017_.:._1"
         points="662.95807,1133.4001 723.66284,1168.3246 723.66083,1098.4714 662.95807,1133.4001 " />
      <polygon
         id="Mesh.017_.:._2"
         points="662.95807,1133.4001 708.565,1184.1188 723.66284,1168.3246 662.95807,1133.4001 " />
      <polygon
         id="Mesh.017_.:._3"
         points="662.95807,1133.4001 617.35938,1184.1188 708.565,1184.1188 662.95807,1133.4001 " />
      <polygon
         id="Mesh.017_.:._4"
         points="662.95807,1133.4001 602.25537,1168.3267 617.35938,1184.1188 662.95807,1133.4001 " />
      <polygon
         id="Mesh.017_.:._5"
         points="662.95807,1133.4001 602.2533,1098.4734 602.25537,1168.3267 662.95807,1133.4001 " />
      <polygon
         id="Mesh.017_.:._6"
         points="662.95807,1133.4001 617.3512,1082.6772 602.2533,1098.4734 662.95807,1133.4001 " />
      <polygon
         id="Mesh.017_.:._7"
         points="662.95807,1133.4001 708.55682,1082.6772 617.3512,1082.6772 662.95807,1133.4001 " />
    </g>
    <g
       id="g75383">
      <polygon
         id="Mesh.017_.:._8"
         points="599.13013,1129.558 596.87323,1131.9173 599.06866,1131.8969 600.76031,1130.1274 599.13013,1129.558 " />
      <polygon
         id="Mesh.017_.:._11"
         points="596.87323,1131.9173 596.87323,1142.356 599.06866,1139.7284 599.06866,1131.8969 596.87323,1131.9173 " />
      <polygon
         id="Mesh.017_.:._13"
         points="612.75952,1129.558 599.13013,1129.558 600.76031,1130.1274 610.98395,1130.1274 612.75952,1129.558 " />
      <polygon
         id="Mesh.017_.:._14"
         points="596.87323,1142.356 599.13013,1144.7194 600.76239,1141.4958 599.06866,1139.7284 596.87323,1142.356 " />
      <polygon
         id="Mesh.017_.:._15"
         points="599.13013,1144.7194 612.7616,1144.7173 610.98395,1141.4958 600.76239,1141.4958 599.13013,1144.7194 " />
      <polygon
         id="Mesh.017_.:._9"
         points="612.7616,1144.7173 615.01642,1142.356 612.67761,1139.7284 610.98395,1141.4958 612.7616,1144.7173 " />
      <polygon
         id="Mesh.017_.:._10"
         points="615.01642,1142.356 615.01642,1131.9153 612.6756,1131.8969 612.67761,1139.7284 615.01642,1142.356 " />
      <polygon
         id="Mesh.017_.:._12"
         points="615.01642,1131.9153 612.75952,1129.558 610.98395,1130.1274 612.6756,1131.8969 615.01642,1131.9153 " />
    </g>
  </g>
  <g
     style="fill:#e9e6db;stroke:#000000"
     inkscape:label="RMU1.bt10"
     id="RMU1.bt10"
     transform="translate(-2189.2414,5.4323607)">
    <g
       id="g75394">
      <polygon
         id="Mesh.014_.:._0"
         points="710.21362,784.64001 664.5965,824.61084 725.32172,799.36719 710.21362,784.64001 " />
      <polygon
         id="Mesh.014_.:._1"
         points="664.5965,824.61084 725.32379,849.85034 725.32172,799.36719 664.5965,824.61084 " />
      <polygon
         id="Mesh.014_.:._2"
         points="664.5965,824.61084 710.21979,864.57751 725.32379,849.85034 664.5965,824.61084 " />
      <polygon
         id="Mesh.014_.:._3"
         points="664.5965,824.61084 618.98138,864.57751 710.21979,864.57751 664.5965,824.61084 " />
      <polygon
         id="Mesh.014_.:._4"
         points="664.5965,824.61084 603.87122,849.85242 618.98138,864.57751 664.5965,824.61084 " />
      <polygon
         id="Mesh.014_.:._5"
         points="664.5965,824.61084 603.8692,799.37122 603.87122,849.85242 664.5965,824.61084 " />
      <polygon
         id="Mesh.014_.:._6"
         points="664.5965,824.61084 618.97321,784.64209 603.8692,799.37122 664.5965,824.61084 " />
      <polygon
         id="Mesh.014_.:._7"
         points="664.5965,824.61084 710.21362,784.64001 618.97321,784.64209 664.5965,824.61084 " />
    </g>
    <g
       id="g75404">
      <polygon
         id="Mesh.014_.:._8"
         points="608.69836,829.48303 608.69836,825.54468 607.51874,829.87207 607.51874,832.82532 608.69836,829.48303 " />
      <polygon
         id="Mesh.014_.:._10"
         points="608.69836,825.54468 607.51874,824.39575 606.63605,829.00989 607.51874,829.87207 608.69836,825.54468 " />
      <polygon
         id="Mesh.014_.:._11"
         points="607.51874,824.39575 600.40192,824.39575 601.29688,829.00989 606.63605,829.00989 607.51874,824.39575 " />
      <polygon
         id="Mesh.014_.:._13"
         points="600.40192,824.39575 599.2243,825.54468 600.41418,829.87207 601.29688,829.00989 600.40192,824.39575 " />
      <polygon
         id="Mesh.014_.:._14"
         points="607.52075,830.63196 608.69836,829.48303 607.51874,832.82532 606.63605,833.6875 607.52075,830.63196 " />
      <polygon
         id="Mesh.014_.:._15"
         points="599.2243,825.54468 599.2243,829.48303 600.41418,832.82532 600.41418,829.87207 599.2243,825.54468 " />
      <polygon
         id="Mesh.014_.:._9"
         points="599.2243,829.48303 600.40399,830.63196 601.29688,833.6875 600.41418,832.82532 599.2243,829.48303 " />
      <polygon
         id="Mesh.014_.:._12"
         points="600.40399,830.63196 607.52075,830.63196 606.63605,833.6875 601.29688,833.6875 600.40399,830.63196 " />
    </g>
  </g>
  <g
     style="fill:#92f3a4;stroke:#000000"
     inkscape:label="RMU1.bt11"
     id="RMU1.bt11"
     transform="translate(-2189.2414,5.4323607)">
    <g
       id="g75415">
      <polygon
         id="Mesh.015_.:._0"
         points="618.98138,787.81445 664.59851,827.78516 603.87122,802.54163 618.98138,787.81445 " />
      <polygon
         id="Mesh.015_.:._1"
         points="664.59851,827.78516 603.87122,853.02478 603.87122,802.54163 664.59851,827.78516 " />
      <polygon
         id="Mesh.015_.:._2"
         points="664.59851,827.78516 618.97522,867.75195 603.87122,853.02478 664.59851,827.78516 " />
      <polygon
         id="Mesh.015_.:._3"
         points="664.59851,827.78516 710.21362,867.75195 618.97522,867.75195 664.59851,827.78516 " />
      <polygon
         id="Mesh.015_.:._4"
         points="664.59851,827.78516 725.32379,853.02686 710.21362,867.75195 664.59851,827.78516 " />
      <polygon
         id="Mesh.015_.:._5"
         points="664.59851,827.78516 725.32581,802.54565 725.32379,853.02686 664.59851,827.78516 " />
      <polygon
         id="Mesh.015_.:._6"
         points="664.59851,827.78516 710.21979,787.81641 725.32581,802.54565 664.59851,827.78516 " />
      <polygon
         id="Mesh.015_.:._7"
         points="664.59851,827.78516 618.98138,787.81445 710.21979,787.81641 664.59851,827.78516 " />
    </g>
    <g
       id="g75425">
      <polygon
         id="Mesh.015_.:._8"
         points="604.87885,828.99963 603.84259,827.98999 604.8891,830.92688 605.66528,831.68262 604.87885,828.99963 " />
      <polygon
         id="Mesh.015_.:._10"
         points="603.84259,827.98999 603.84259,824.53088 604.8891,828.33203 604.8891,830.92688 603.84259,827.98999 " />
      <polygon
         id="Mesh.015_.:._12"
         points="603.84259,824.53088 604.87885,823.52332 605.66528,827.57629 604.8891,828.33203 603.84259,824.53088 " />
      <polygon
         id="Mesh.015_.:._13"
         points="604.87885,823.52332 611.12933,823.52332 610.35315,827.57629 605.66528,827.57629 604.87885,823.52332 " />
      <polygon
         id="Mesh.015_.:._14"
         points="611.12933,828.99963 604.87885,828.99963 605.66528,831.68262 610.35107,831.68262 611.12933,828.99963 " />
      <polygon
         id="Mesh.015_.:._15"
         points="611.12933,823.52332 612.16357,824.53088 611.12933,828.33203 610.35315,827.57629 611.12933,823.52332 " />
      <polygon
         id="Mesh.015_.:._9"
         points="612.16357,824.53088 612.16357,827.98999 611.12933,830.92688 611.12933,828.33203 612.16357,824.53088 " />
      <polygon
         id="Mesh.015_.:._11"
         points="612.16357,827.98999 611.12933,828.99963 610.35107,831.68262 611.12933,830.92688 612.16357,827.98999 " />
    </g>
  </g>
  <g
     style="fill:#b3e9a2;stroke:#000000"
     inkscape:label="RMU1.bt08"
     id="RMU1.bt08"
     transform="translate(-2189.2414,5.4323607)">
    <g
       id="g75436">
      <polygon
         id="Mesh.012_.:._0"
         points="710.21362,784.64001 664.5965,824.61084 725.32172,799.36719 710.21362,784.64001 " />
      <polygon
         id="Mesh.012_.:._1"
         points="664.5965,824.61084 725.32379,849.85034 725.32172,799.36719 664.5965,824.61084 " />
      <polygon
         id="Mesh.012_.:._2"
         points="664.5965,824.61084 710.21979,864.57751 725.32379,849.85034 664.5965,824.61084 " />
      <polygon
         id="Mesh.012_.:._3"
         points="664.5965,824.61084 618.98138,864.57751 710.21979,864.57751 664.5965,824.61084 " />
      <polygon
         id="Mesh.012_.:._4"
         points="664.5965,824.61084 603.87122,849.85242 618.98138,864.57751 664.5965,824.61084 " />
      <polygon
         id="Mesh.012_.:._5"
         points="664.5965,824.61084 603.8692,799.37122 603.87122,849.85242 664.5965,824.61084 " />
      <polygon
         id="Mesh.012_.:._6"
         points="664.5965,824.61084 618.97321,784.64209 603.8692,799.37122 664.5965,824.61084 " />
      <polygon
         id="Mesh.012_.:._7"
         points="664.5965,824.61084 710.21362,784.64001 618.97321,784.64209 664.5965,824.61084 " />
    </g>
    <g
       id="g75446">
      <polygon
         id="Mesh.012_.:._8"
         points="611.58197,823.6626 611.58197,820.20349 610.54565,824.00464 610.54565,826.59937 611.58197,823.6626 " />
      <polygon
         id="Mesh.012_.:._11"
         points="611.58197,820.20349 610.54565,819.19592 609.76947,823.2489 610.54565,824.00464 611.58197,820.20349 " />
      <polygon
         id="Mesh.012_.:._12"
         points="610.54565,819.19592 604.29517,819.19592 605.0816,823.2489 609.76947,823.2489 610.54565,819.19592 " />
      <polygon
         id="Mesh.012_.:._14"
         points="604.29517,819.19592 603.26093,820.20349 604.30542,824.00464 605.0816,823.2489 604.29517,819.19592 " />
      <polygon
         id="Mesh.012_.:._15"
         points="610.54565,824.67224 611.58197,823.6626 610.54565,826.59937 609.76947,827.3551 610.54565,824.67224 " />
      <polygon
         id="Mesh.012_.:._9"
         points="603.26093,820.20349 603.26093,823.6626 604.30542,826.59937 604.30542,824.00464 603.26093,820.20349 " />
      <polygon
         id="Mesh.012_.:._10"
         points="603.26093,823.6626 604.29517,824.67224 605.0816,827.3551 604.30542,826.59937 603.26093,823.6626 " />
      <polygon
         id="Mesh.012_.:._13"
         points="604.29517,824.67224 610.54565,824.67224 609.76947,827.3551 605.0816,827.3551 604.29517,824.67224 " />
    </g>
  </g>
  <g
     style="fill:#fabe96;stroke:#000000"
     inkscape:label="RMU1.bt09"
     id="RMU1.bt09"
     transform="translate(-2189.2414,5.4323607)">
    <g
       id="g75457">
      <polygon
         id="Mesh.013_.:._0"
         points="618.98138,784.64001 664.59851,824.61084 603.87122,799.36719 618.98138,784.64001 " />
      <polygon
         id="Mesh.013_.:._1"
         points="664.59851,824.61084 603.87122,849.85034 603.87122,799.36719 664.59851,824.61084 " />
      <polygon
         id="Mesh.013_.:._2"
         points="664.59851,824.61084 618.97522,864.57751 603.87122,849.85034 664.59851,824.61084 " />
      <polygon
         id="Mesh.013_.:._3"
         points="664.59851,824.61084 710.21362,864.57751 618.97522,864.57751 664.59851,824.61084 " />
      <polygon
         id="Mesh.013_.:._4"
         points="664.59851,824.61084 725.32379,849.85242 710.21362,864.57751 664.59851,824.61084 " />
      <polygon
         id="Mesh.013_.:._5"
         points="664.59851,824.61084 725.32581,799.37122 725.32379,849.85242 664.59851,824.61084 " />
      <polygon
         id="Mesh.013_.:._6"
         points="664.59851,824.61084 710.21979,784.64209 725.32581,799.37122 664.59851,824.61084 " />
      <polygon
         id="Mesh.013_.:._7"
         points="664.59851,824.61084 618.98138,784.64001 710.21979,784.64209 664.59851,824.61084 " />
    </g>
    <g
       id="g75467">
      <polygon
         id="Mesh.013_.:._8"
         points="610.36542,824.84631 603.33466,824.84631 604.21942,827.86511 609.49097,827.86511 610.36542,824.84631 " />
      <polygon
         id="Mesh.013_.:._10"
         points="603.33466,824.84631 602.17139,823.71179 603.34692,827.01306 604.21942,827.86511 603.33466,824.84631 " />
      <polygon
         id="Mesh.013_.:._12"
         points="602.17139,823.71179 602.17139,819.82056 603.34692,824.0968 603.34692,827.01306 602.17139,823.71179 " />
      <polygon
         id="Mesh.013_.:._13"
         points="611.52869,823.71179 610.36542,824.84631 609.49097,827.86511 610.36542,827.01306 611.52869,823.71179 " />
      <polygon
         id="Mesh.013_.:._14"
         points="602.17139,819.82056 603.33673,818.68591 604.21942,823.24475 603.34692,824.0968 602.17139,819.82056 " />
      <polygon
         id="Mesh.013_.:._15"
         points="603.33673,818.68591 610.36542,818.68591 609.49298,823.24475 604.21942,823.24475 603.33673,818.68591 " />
      <polygon
         id="Mesh.013_.:._9"
         points="610.36542,818.68591 611.52869,819.82056 610.36542,824.0968 609.49298,823.24475 610.36542,818.68591 " />
      <polygon
         id="Mesh.013_.:._11"
         points="611.52869,819.82056 611.52869,823.71179 610.36542,827.01306 610.36542,824.0968 611.52869,819.82056 " />
    </g>
  </g>
  <g
     style="fill:#dec37c;stroke:#000000"
     inkscape:label="RMU1.bt06"
     id="RMU1.bt06"
     transform="translate(-2189.2414,5.4323607)">
    <g
       id="g75478">
      <polygon
         id="Mesh.010_.:._0"
         points="710.21362,784.64001 664.5965,824.61084 725.32172,799.36719 710.21362,784.64001 " />
      <polygon
         id="Mesh.010_.:._1"
         points="664.5965,824.61084 725.32379,849.85034 725.32172,799.36719 664.5965,824.61084 " />
      <polygon
         id="Mesh.010_.:._2"
         points="664.5965,824.61084 710.21979,864.57751 725.32379,849.85034 664.5965,824.61084 " />
      <polygon
         id="Mesh.010_.:._3"
         points="664.5965,824.61084 618.98138,864.57751 710.21979,864.57751 664.5965,824.61084 " />
      <polygon
         id="Mesh.010_.:._4"
         points="664.5965,824.61084 603.87122,849.85242 618.98138,864.57751 664.5965,824.61084 " />
      <polygon
         id="Mesh.010_.:._5"
         points="664.5965,824.61084 603.8692,799.37122 603.87122,849.85242 664.5965,824.61084 " />
      <polygon
         id="Mesh.010_.:._6"
         points="664.5965,824.61084 618.97321,784.64209 603.8692,799.37122 664.5965,824.61084 " />
      <polygon
         id="Mesh.010_.:._7"
         points="664.5965,824.61084 710.21362,784.64001 618.97321,784.64209 664.5965,824.61084 " />
    </g>
    <g
       id="g75488">
      <polygon
         id="Mesh.010_.:._8"
         points="596.34076,820.80774 596.34076,826.18372 597.96478,830.74658 597.96478,826.71619 596.34076,820.80774 " />
      <polygon
         id="Mesh.010_.:._10"
         points="596.34076,826.18372 597.95044,827.75244 599.1731,831.92419 597.96478,830.74658 596.34076,826.18372 " />
      <polygon
         id="Mesh.010_.:._13"
         points="597.95044,827.75244 607.6662,827.75244 606.4599,831.92419 599.1731,831.92419 597.95044,827.75244 " />
      <polygon
         id="Mesh.010_.:._14"
         points="597.95044,819.23889 596.34076,820.80774 597.96478,826.71619 599.17108,825.53857 597.95044,819.23889 " />
      <polygon
         id="Mesh.010_.:._15"
         points="607.6662,827.75244 609.27386,826.18372 607.6662,830.74658 606.4599,831.92419 607.6662,827.75244 " />
      <polygon
         id="Mesh.010_.:._9"
         points="609.27386,826.18372 609.27386,820.80774 607.6662,826.71619 607.6662,830.74658 609.27386,826.18372 " />
      <polygon
         id="Mesh.010_.:._11"
         points="609.27386,820.80774 607.6662,819.23889 606.45789,825.53857 607.6662,826.71619 609.27386,820.80774 " />
      <polygon
         id="Mesh.010_.:._12"
         points="607.6662,819.23889 597.95044,819.23889 599.17108,825.53857 606.45789,825.53857 607.6662,819.23889 " />
    </g>
  </g>
  <g
     style="fill:#92d6de;stroke:#000000"
     inkscape:label="RMU1.bt07"
     id="RMU1.bt07"
     transform="translate(-2189.2414,5.4323607)">
    <g
       id="g75499">
      <polygon
         id="Mesh.011_.:._0"
         points="618.98138,787.81445 664.59851,827.78516 603.87122,802.54163 618.98138,787.81445 " />
      <polygon
         id="Mesh.011_.:._1"
         points="664.59851,827.78516 603.87122,853.02478 603.87122,802.54163 664.59851,827.78516 " />
      <polygon
         id="Mesh.011_.:._2"
         points="664.59851,827.78516 618.97522,867.75195 603.87122,853.02478 664.59851,827.78516 " />
      <polygon
         id="Mesh.011_.:._3"
         points="664.59851,827.78516 710.21362,867.75195 618.97522,867.75195 664.59851,827.78516 " />
      <polygon
         id="Mesh.011_.:._4"
         points="664.59851,827.78516 725.32379,853.02686 710.21362,867.75195 664.59851,827.78516 " />
      <polygon
         id="Mesh.011_.:._5"
         points="664.59851,827.78516 725.32581,802.54565 725.32379,853.02686 664.59851,827.78516 " />
      <polygon
         id="Mesh.011_.:._6"
         points="664.59851,827.78516 710.21979,787.81641 725.32581,802.54565 664.59851,827.78516 " />
      <polygon
         id="Mesh.011_.:._7"
         points="664.59851,827.78516 618.98138,787.81445 710.21979,787.81641 664.59851,827.78516 " />
    </g>
    <g
       id="g75509">
      <polygon
         id="Mesh.011_.:._8"
         points="610.26306,829.16968 609.10181,828.03711 610.27325,831.3324 611.14575,832.18018 610.26306,829.16968 " />
      <polygon
         id="Mesh.011_.:._10"
         points="609.10181,828.03711 609.10181,824.1582 610.27325,828.42212 610.27325,831.3324 609.10181,828.03711 " />
      <polygon
         id="Mesh.011_.:._12"
         points="609.10181,824.1582 610.26306,823.02563 611.14575,827.57227 610.27325,828.42212 609.10181,824.1582 " />
      <polygon
         id="Mesh.011_.:._13"
         points="610.26306,823.02563 617.27539,823.02563 616.40497,827.57227 611.14575,827.57227 610.26306,823.02563 " />
      <polygon
         id="Mesh.011_.:._14"
         points="617.27539,829.16968 610.26306,829.16968 611.14575,832.18018 616.40497,832.18018 617.27539,829.16968 " />
      <polygon
         id="Mesh.011_.:._15"
         points="617.27539,823.02563 618.43658,824.1582 617.27539,828.42212 616.40497,827.57227 617.27539,823.02563 " />
      <polygon
         id="Mesh.011_.:._9"
         points="618.43658,824.1582 618.43658,828.03711 617.27539,831.3324 617.27539,828.42212 618.43658,824.1582 " />
      <polygon
         id="Mesh.011_.:._11"
         points="618.43658,828.03711 617.27539,829.16968 616.40497,832.18018 617.27539,831.3324 618.43658,828.03711 " />
    </g>
  </g>
</svg>
